<svg version="1.2" xmlns="http://www.w3.org/2000/svg" viewBox="0 0 3000 3000" width="3000" height="3000">
	<title>16246905_abstract_572-ai</title>
	<defs>
		<linearGradient id="g1" x1="1688.7" y1="2515.3" x2="1750.5" y2="2500" gradientUnits="userSpaceOnUse">
			<stop offset="0" stop-color="#3d86d5"/>
			<stop offset="1" stop-color="#4b58f0"/>
		</linearGradient>
		<linearGradient id="g2" x1="1982.9" y1="2515.3" x2="2044.7" y2="2500" gradientUnits="userSpaceOnUse">
			<stop offset="0" stop-color="#3d86d5"/>
			<stop offset="1" stop-color="#4b58f0"/>
		</linearGradient>
		<linearGradient id="g3" x1="1628.1" y1="2490.6" x2="1535.6" y2="2465.2" gradientUnits="userSpaceOnUse">
			<stop offset="0" stop-color="#3d86d5"/>
			<stop offset="1" stop-color="#485bec"/>
		</linearGradient>
		<linearGradient id="g4" x1="1500" y1="2138.4" x2="1500" y2="2138.4" gradientUnits="userSpaceOnUse">
			<stop offset="0" stop-color="#1a1a1a"/>
			<stop offset="1" stop-color="#1a1a1a"/>
		</linearGradient>
		<linearGradient id="g5" x1="1731.1" y1="2533" x2="1780.8" y2="2330.7" gradientUnits="userSpaceOnUse">
			<stop offset="0" stop-color="#2e65a0"/>
			<stop offset="1" stop-color="#f05824"/>
		</linearGradient>
		<linearGradient id="g6" x1="1681.6" y1="2519.3" x2="1564.9" y2="2416.8" gradientUnits="userSpaceOnUse">
			<stop offset="0" stop-color="#2e65a0"/>
			<stop offset="1" stop-color="#ec5022"/>
		</linearGradient>
		<linearGradient id="g7" x1="1884.6" y1="2542.2" x2="1916.4" y2="2375.5" gradientUnits="userSpaceOnUse">
			<stop offset="0" stop-color="#2e65a0"/>
			<stop offset="1" stop-color="#f15a24"/>
		</linearGradient>
	</defs>
	<style>
		.s0 { fill: #4f2a12 } 
		.s1 { fill: #c6401d } 
		.s2 { fill: #a8dbd1 } 
		.s3 { fill: #953016 } 
		.s4 { fill: #f7d1bf } 
		.s5 { fill: #1a1a1a } 
		.s6 { fill: #d95b3b } 
		.s7 { fill: #d99357 } 
		.s8 { fill: #4d4d4d } 
		.s9 { fill: #b3b3b3 } 
		.s10 { fill: #999999 } 
		.s11 { fill: #fbb03b } 
		.s12 { fill: #ef9f2a } 
		.s13 { fill: #f89c9c } 
		.s14 { fill: #ffffff } 
		.s15 { fill: #e04151 } 
		.s16 { fill: #731e2b } 
		.s17 { fill: #fef9f9 } 
		.s18 { fill: #ff8080 } 
		.s19 { fill: #db6946 } 
		.s20 { fill: #693818 } 
		.s21 { fill: #965c35 } 
		.s22 { fill: #deae97 } 
		.s23 { fill: #e3d0bf } 
		.s24 { mix-blend-mode: multiply;fill: #e6e6e6 } 
		.s25 { mix-blend-mode: soft-light;fill: #ffffff } 
		.s26 { fill: #da821c } 
		.s27 { fill: #c85d27 } 
		.s28 { fill: #e6966e } 
		.s29 { fill: #fd7631 } 
		.s30 { fill: #ff8c50 } 
		.s31 { fill: #ffa678 } 
		.s32 { fill: #fe6d00 } 
		.s33 { fill: #d65c00 } 
		.s34 { fill: #db5e25 } 
		.s35 { fill: #cc5823 } 
		.s36 { fill: #8cc63f } 
		.s37 { fill: #7eb339 } 
		.s38 { fill: #ce1417 } 
		.s39 { fill: #c41316 } 
		.s40 { fill: #468732 } 
		.s41 { fill: url(#g1) } 
		.s42 { fill: url(#g2) } 
		.s43 { fill: #3694ce } 
		.s44 { fill: url(#g3) } 
		.s45 { fill: #333333 } 
		.s46 { fill: url(#g4) } 
		.s47 { fill: #bc842c } 
		.s48 { fill: #b1c6d5 } 
		.s49 { fill: #f15a24 } 
		.s50 { fill: #fcc062 } 
		.s51 { fill: #22b573 } 
		.s52 { fill: url(#g5) } 
		.s53 { fill: #2e65a0 } 
		.s54 { fill: url(#g6) } 
		.s55 { fill: url(#g7) } 
		.s56 { fill: #e0ebf2 } 
		.s57 { fill: #ece1d4 } 
		.s58 { fill: #d6ccc0 } 
	</style>
	<g id="_Artboards_">
	</g>
	<g id="cooking concept">
		<g id="&lt;Clip Group&gt;">
			<g id="&lt;Group&gt;">
				<path id="&lt;Path&gt;" class="s0" d="m1025.1 771.1c-30.3 51-33.3 122-23.9 180.6 9.4 58.6 26.3 116.6 25 175.9-0.6 25.7-0.5 44.6 6.6 69.3 11.4 39.4 48.8 67.3 59.8 106.9 13.5 48.7-14.4 109 18.6 147.3 11.8 13.5 29.1 20.9 42.5 32.8 13.5 11.9 22.7 32.9 12.2 47.5 0 0-0.3 0.5-0.9 1.4q213.6-62.7 427.2-125.5c3.1-19.2-3.3-41.2-13.3-58.8-14.7-26.1-36-49.7-41.6-79.2-6.5-34.8 10.6-70 9-105.5-2.3-48.9-26.5-123-46.8-167.6-27.2-59.9-70.8-85.9-83.1-150.5-12.2-64.6-32.5-131.9-78.5-156.7z"/>
				<path id="&lt;Path&gt;" class="s1" d="m1357.3 1382.5c0 0 5.5-40 29.4-59.6 24-19.7 451.8-49.5 530.5-55.1 78.8-5.5 139.1 142.4 19.5 188-88.3 28.9-256.8 44.8-372.9 52-116.1 7.2-222.4-81.5-206.5-125.3z"/>
				<path id="&lt;Compound Path&gt;" fill-rule="evenodd" class="s0" d="m1585.6 1333.2c14-36.4-2.2-81.7-34.3-105.4-10-7.3-22-13-33.6-18.6-20.6-9.8-41.9-19.9-54.6-39.9-16.2-25.8-11.9-58.7-5.6-87.5l0.7-3.5c5.8-26 11.7-52.9 2.4-76.3-7.2-18.1-22.3-31.2-38.2-45.1q-3.7-3.2-7.4-6.5 0.4 7.9 0.3 15.2c-0.1 7.9-0.3 15.9-0.6 24.4-0.9 37.3-2.1 79.7 6.1 115.4 8.1 35.7 26.6 69.7 47.1 86.6l11.7 9.7-15.1 1.8c-24.6 2.9-55-19.2-73.7-53.9-18.2-33.5-27.9-76.8-29-128.6-0.4-20.8 0.3-41.5 1.1-61.5 0.7-20.4 1.5-41.5 1-62.6-1-41.9-26.7-110.9-26.9-111.5l10.3-7.2c5.5 4.7 10.8 10.3 15.9 16.9-2.4-46.9-14.4-79.8-35.8-97.9-14.4-12.2-33.6-18-57.1-17.2 11.4 15.8 19 33.3 22.1 51.3 7.6 44-10.6 90-45.3 114.6l-11.6 8.1 1.3-14c0.8-8.3 1-16.8 0.5-25.3-6.3 9.9-13.7 19-21.9 27.2-18.8 18.6-42.4 32.5-68.2 40.2-14.9 4.5-30.2 6.8-45.4 6.9h-13.7l4.7-5.8q-3.5 2.9-7.2 5.5c-1.4 1-4.4 3.3-7.5 5.8-4.9 3.8-10.2 8-14.2 10.9-2.1 113.7 33.2 226.8 99.3 318.9l-8.9 9.1c-48.8-33.5-89.5-80.8-118.6-137.7-2.5 39.1-2.9 73.8 14.3 101.8 7.9 12.8 16.5 25.3 24.9 37.3 7.8 11.2 15.9 22.9 23.4 34.9 21.9 35.1 28.2 74.1 19.9 122.8-9.6 56-49.9 93.3-75.4 101.9l-17.8 5.9 10.3-15.7c18.8-28.7 30.4-63.7 32.7-98.4 2.4-37-5.8-70.7-23.5-97.6-5.8-8.7-14.1-16.5-22.9-24.7-12-11.4-24.4-23.1-30.7-38q-0.5-1-0.9-2c-23.2-3.6-45.7-25.2-55.7-54.1-10.2-29.6-9.9-65.5 0.9-106.8 4.2-15.8 9.5-31.3 14.5-46.3 3.7-10.6 7.4-21.7 10.7-32.7q-1.6-6.5-3.2-13.1c-10.4-42.7-21-92.4-14.8-141.1 4.1-32.7 16.5-63.6 35-86.9 11.7-24.8 26.9-46.4 45.4-64.2 22.8-22 50.9-38.4 81.1-47.5 27.4-8.2 55.7-9.8 81.9-4.7 45.4-11.9 93-5 134.2 19.6 38.9 23.2 69.6 60.9 84.3 103.5 5.4 15.5 8.7 31.7 12 47.4 4.3 21.1 8.5 41 17 59.6 8.7 19 22.2 36.7 35.2 53.8 21.3 27.9 43.3 56.7 46 92.7 1.1 15.3-1.5 30.5-4.1 45.2-2.9 16.4-5.6 31.9-3.3 47.2 4.3 28.9 24.7 50.8 46.3 74 14.3 15.3 29.1 31.1 39.3 49.6 18 32.3 20.6 72.8 7.1 108.5-1.5 3.7-11.8 23.8-13.5 27.4zm-604.8-242.4c-4.3 16.6-7.3 33.2-7.4 48.5-0.1 15.4 2.7 30.9 7.8 44.4-1.2-15.2-0.7-30.6-0.1-45.7 0.3-10.2 0.7-20.7 0.5-30.8q-0.1-8-0.8-16.4z"/>
				<path id="&lt;Path&gt;" class="s1" d="m1001.1 1295.7c0 0-38.7-11.5-66.4 2.3-27.8 13.7-301.6 514.9-339.1 584.4-37.5 69.5 72.6 185.3 163.3 95.1 62.7-68.6 217-339.2 271.4-442 54.4-102.9 17.3-236.2-29.2-239.8z"/>
				<g id="&lt;Group&gt;">
					<g id="&lt;Group&gt;">
						<path id="&lt;Path&gt;" class="s1" d="m1432.2 2039.7c-5.7-25.1 54.9-58.4 37.9-84-22.3-33.6-31.3-195.6-21.4-255.4 34.7-29.2 77.3-52.1 87.7-95 6.4-26.1-1.4-53.3-8-79.3-15.9-62.9 11.5-153.8 9.3-218.7-55.4-14.7-143.8-47.4-203.5-73.3h-184c-59.8 25.9-148.2 58.6-203.6 73.3-2.1 64.9 25.3 155.8 9.4 218.7-6.6 26-14.4 53.2-8.1 79.3 10.4 42.9 53 65.8 87.8 95 10.3 62.4 30.3 218.7-16.8 255.4-24.8 19.3 34.9 49.3 29.8 71.8 0 0 77.1 40.2 180 40.2 102.8 0 203.5-28 203.5-28z"/>
					</g>
					<g id="&lt;Group&gt;">
						<path id="&lt;Path&gt;" class="s2" d="m1254.7 1316.9c1.7-14.7 3.3-29.1 5-43-2.3 14.2-4.1 28.6-5 43z"/>
						<path id="&lt;Path&gt;" class="s3" d="m1100.9 1483.9c18.6 24.2 62.5 9.6 72.7-0.5 64.6-64.7 73.2-84.8 94.3-150.5l4.5-3.8c-2.6 40.9 21 115.9 85 159.2 17.7 12 28.5-2.4 32.1-17 16.9-74.2 5.7-146.3-8.6-218-16.6-6.6-32.5-13.1-46.7-19.3h-184c-13.9 6.1-29.4 12.4-45.6 18.9-25.4 118.1-22.4 206.8-3.7 231z"/>
						<path id="&lt;Path&gt;" class="s3" d="m1525 1445.1c-2.4 7-4 14.2-5.7 20.7-12.8 60.4 16.5 120.7-12.8 177.4-23.7 45.7-78.6 62.1-127.9 71.3 16.4 0 42-7.3 47.5 0 18.6 56 11.6 97.9 17.1 156.4 2.4 24.8 4.8 37.3-0.6 48.3-9.2 20.1-3.7 31.1 12.8 45.7 4.6 4.6 8 11.2 11.6 17.6 5.9-9.4 8.6-18.5 3.1-26.8-22.3-33.6-31.3-195.6-21.4-255.4 34.7-29.2 77.3-52.1 87.7-95 6.4-26.1-1.4-53.3-8-79.3-6.1-23.9-5.8-51.9-3.4-80.9z"/>
						<path id="&lt;Path&gt;" class="s3" d="m1060.5 1716.3c7.3-14.6 40.2-1.8 62.1-1.8-56.6-27.5-129.8-49.4-153.5-111.6-14.7-34.7 3.6-76.7-1.9-115.1 0-5.3-2.8-10.5-6.4-15.7 0.5 19.2-0.7 37.5-4.8 53.9-6.6 26-14.4 53.2-8.1 79.3 10.4 42.9 53 65.8 87.8 95 6.9 41.6 18 125 10.8 186.8 6.1-12 12.4-24.4 14-37.4 5.5-45.7-23.8-95 0-133.4z"/>
					</g>
				</g>
				<g id="&lt;Group&gt;">
					<g id="&lt;Group&gt;">
						<path id="&lt;Path&gt;" class="s4" d="m1137.9 1062.4v72.1 140.6h208.6v-170.3-42.4z"/>
						<path id="&lt;Path&gt;" class="s5" d="m1346.5 1062.4h-208.6v72.1 83.1c74.1-5 148.2-26 208.6-66.1v-46.7z"/>
					</g>
					<path id="&lt;Path&gt;" class="s4" d="m1361.8 1275.2c0 35.6-93.9 95.8-93.9 95.8 0 0-145.4-60.2-145.4-95.8 0-35.6 53.6-45.5 119.7-45.5 66.1 0 119.6 9.9 119.6 45.5z"/>
				</g>
				<g id="&lt;Group&gt;">
					<path id="&lt;Path&gt;" class="s6" d="m1346.5 1229.7v18.6c0 0 16.8 38.8-0.5 48.7-17.3 9.9-78.1 49-78.1 74 0 0 103.6 167.8 126.3 87.3 22.7-80.5 3.5-187.5 0-202.3-3.5-14.9-47.7-26.3-47.7-26.3z"/>
					<path id="&lt;Path&gt;" class="s6" d="m1137.9 1229.7v18.6c0 0-9 38.8 11.5 48.7 20.6 9.9 118.5 49 118.5 74 0 0-148.7 178.4-175.7 97.8-27-80.5-4.1-198 0-212.8 4.2-14.9 45.7-26.3 45.7-26.3z"/>
				</g>
				<g id="&lt;Group&gt;">
					<path id="&lt;Path&gt;" class="s1" d="m1105.7 1919c-137.2 156.8-198 382.8-232.9 592.1-33.7 202.1-47.4 408.9-103.7 605.2 34.3 15.9 71.6 24.5 109.1 25.2q-5.1 21.5-10.2 42.9c44.5 5.5 89.2 8.6 133.9 9.5-1.6 12-6.1 23.5-13.3 33 184.4 9.8 369.4 6.1 553.2-11q-2.9-22.3-5.8-44.5 77.6-1 155.3-2-7.6-27.5-15.1-54.9 49.7-8.7 99.4-17.3c-52.1-205.6-73.8-418.2-122.6-624.6-48.2-203.6-126.4-406.4-269.2-553.6z"/>
					<path id="&lt;Path&gt;" class="s3" d="m930.7 2911.9c-17.3 55.9-27.5 113.3-49.4 170-3.7 12.8-16.4 31.1-27.4 32.9-31.1 5.5-73.1-12.8-65.8-53 17.3-101.2 45-197.9 48.5-297.2-16.3 118.8-34.6 237-67.5 351.7 33.8 15.6 70.5 24.2 107.4 25.2 16.8-76.5 45.8-151.5 54.2-229.6z"/>
					<path id="&lt;Path&gt;" class="s3" d="m1685.7 3083.7c-25.6-53-29.2-113.3-51.2-168.1 5.3 68.4 13.9 136.8 42.1 198.8q33.1-5.8 66.2-11.5c-23-5-48.5-1.9-57.1-19.2z"/>
					<path id="&lt;Path&gt;" class="s3" d="m1582.1 3170.8c-11.4-5.4-21.8-5.9-33.5-17.6-11.4-11.4-24-56.1-29.5-85.3-5.6-29.6-9.4-51-16.1-79 8.2 63.7 9.1 129.9 33.8 189q-0.4-3.3-0.8-6.5 23.1-0.3 46.1-0.6z"/>
					<path id="&lt;Path&gt;" class="s3" d="m1040.4 2930.2c-20.1 76.8-34.8 153.5-49.4 235.8-3 16.8-22.6 20.8-39.6 25.9q24.1 1.4 48.2 2c12.1-12.8 20.7-29.9 20.7-48 3.6-73.1 5.4-144.4 20.1-215.7z"/>
				</g>
				<g id="&lt;Group&gt;">
					<path id="&lt;Path&gt;" class="s4" d="m2122.8 1042.5l58.5-73 71.1 58.4-66 79.1z"/>
					<path id="&lt;Path&gt;" class="s1" d="m1828.6 1421.9c0 0-15.1-54.6-15.1-82.5 0-52.4 216.9-218.2 261.3-312.2 15.7-33.2 37.5-16.1 37.5-16.1l20.3-8.9 90.8 87.9-5.7 27c0 0 20.7 44-5 63.2-38.6 28.9-139.9 173.1-183.5 222.1-61.7 69.3-180.8 61.1-200.6 19.5z"/>
					<g id="&lt;Group&gt;">
						<g id="&lt;Group&gt;">
							<g id="&lt;Group&gt;">
								<g id="&lt;Group&gt;">
									<g id="&lt;Group&gt;">
										<g id="&lt;Group&gt;">
											<g id="&lt;Group&gt;">
												<path id="&lt;Path&gt;" class="s4" d="m2170.2 933c5.3-25 10.5-20.2 113.3-62.9 3.8-1.5 50.7 85.8 10.5 135.4-25 30.7-71.4 51.7-103.2 19.1-19.6-20.1-20.6-91.6-20.6-91.6z"/>
											</g>
										</g>
									</g>
								</g>
							</g>
						</g>
						<path id="&lt;Path&gt;" class="s4" d="m2183.5 1014.8c-21.8-45.3-30.7-68.7-33.4-101.8-1.5-17.8 4.7-16.6 19.3-34.9 22-27.6 53.7-61.5 66-37.7 18.8 36.2-33.2 74.7-25 83.8 48.3 53.8-5 135.9-26.9 90.6z"/>
						<g id="&lt;Group&gt;">
							<g id="&lt;Group&gt;">
								<g id="&lt;Group&gt;">
									<path id="&lt;Path&gt;" class="s7" d="m2155.9 1380.3l21.6 1.7 78.6-656.2c1.3-11.5-7.1-21.7-18.8-22.7-11.8-0.9-22.2 7.8-23.2 19.4z"/>
									<path id="&lt;Path&gt;" class="s8" d="m2180.2 1378.2c-13.4 45.5-60.8 77.2-113.4 73.1-52.7-4.2-92.7-42.8-96.5-89.7z"/>
									<g id="&lt;Group&gt;">
										<path id="&lt;Path&gt;" class="s8" d="m2212.9 1110.6l-35.4 271.4-24.6-1.9 24.3-272.4z"/>
										<g id="&lt;Group&gt;">
											<path id="&lt;Path&gt;" class="s9" d="m2188.2 1119.9c-0.3 2.9 1.8 5.4 4.7 5.6 2.9 0.2 5.6-1.9 5.9-4.8 0.3-2.9-1.9-5.4-4.8-5.6-2.9-0.3-5.5 1.9-5.8 4.8z"/>
											<path id="&lt;Path&gt;" class="s10" d="m2193 1124.3c0.2 0.1 0.4-0.1 0.4-0.3l0.8-7.4c0-0.2-0.1-0.3-0.3-0.4-0.2 0-0.4 0.2-0.4 0.3l-0.8 7.5c0 0.2 0.1 0.3 0.3 0.3z"/>
										</g>
									</g>
								</g>
							</g>
						</g>
						<g id="&lt;Group&gt;">
							<path id="&lt;Path&gt;" class="s4" d="m2307.2 904.3c0 0-26.2-16.8-48.7-21.3-22.5-4.5-45 12.8-58.7 26.5-13.7 13.7-1.5 35.3 18.7 23 20.2-12.3 33.3-13.5 36.9-13.5 3.6 0 31.3 18.4 36.3 21.8 16.6 11 36.2-21.8 15.5-36.5z"/>
							<path id="&lt;Path&gt;" class="s4" d="m2308.3 937.6c0 0-26.1-16.9-48.7-21.4-22.5-4.4-45 12.8-58.7 26.5-13.7 13.7-1.4 35.3 18.8 23 20.2-12.3 33.2-13.5 36.9-13.5 3.6 0 31.3 18.5 36.3 21.8 16.6 11.1 36.2-21.7 15.4-36.4z"/>
							<path id="&lt;Path&gt;" class="s4" d="m2301.9 967.9c0 0-24.3-16.8-45.1-21.3-20.8-4.5-41.7 12.8-54.3 26.5-12.7 13.7-1.3 35.3 17.3 23 18.7-12.3 30.8-13.5 34.2-13.5 3.3 0 28.9 18.5 33.6 21.8 15.4 11 33.5-21.8 14.3-36.5z"/>
							<path id="&lt;Path&gt;" class="s4" d="m2314 889.8c-11-11-51.3-40.6-66.1-48.1-14.7-7.4-56.4 1.9-78.8 6.4-22.3 4.5-26.7 36.4 4.9 32.8 31.7-3.7 54.6-1 60.2-1 5.5 0 40.3 29.1 55.5 41.2 19.2 15.1 44.7-10.9 24.3-31.3z"/>
						</g>
					</g>
					<path id="&lt;Path&gt;" class="s11" d="m2020.6 1364.5c-1.5 1.3-1.6 3.9-0.6 5.7 1.1 1.8 3 2.9 4.9 3.6 5.2 1.9 10.9 1.2 16.4 1.4 5.6 0.2 11.6 1.5 14.9 5.9 3.8 5.1 3.7 13.8 9.7 15.8 3.6 1.2 7.5-1 10.1-3.7 2.7-2.7 4.7-6 7.8-8.1 7.3-4.9 17-1.6 25.8-1.1 2.8 0.2 5.7 0.1 8.2-1.3 2.4-1.5 4.1-4.4 3.3-7.1-0.9-2.7-3-3.4-11.7-3.8-8.9-0.4-88.8-7.3-88.8-7.3z"/>
					<path id="&lt;Path&gt;" class="s11" d="m2140.7 1397.8c1.1-0.1 2-0.4 3-0.8 2-0.6 3.9-1.3 5.6-2.5 2.5-1.9 3.7-7.3 0-8.9-3.3-1.4-9.7 4.1-11.4 6.5-0.8 1.1-1.4 2.4-1 3.6 0.4 1.2 1.7 2 3 2.1q0.4 0 0.8 0z"/>
				</g>
				<g id="&lt;Group&gt;">
					<path id="&lt;Path&gt;" class="s12" d="m1053.7 1556.6c0 0 173.1 106.8 393.7 0 0 0 26.3 253 26.3 310.7 0 57.8 15.5 104.7 43.4 166.4 27.9 61.7 163.3 373.6 225.7 767.3 0 0-414.6 67-947.2-8.1 0 0 106.4-551.8 151.4-685.9 45.1-134.1 87.1-198.2 87.1-247.7 0-71.5 0-114.6 19.6-302.7z"/>
					<path id="&lt;Path&gt;" class="s12" d="m1449.7 1579.2l19.3-294.9-9.6-3.3-24.8 298.2z"/>
					<path id="&lt;Path&gt;" class="s12" d="m1053.4 1572.2l-19.3-295 9.6-3.3 24.8 298.3z"/>
				</g>
				<g id="&lt;Group&gt;">
					<g id="&lt;Group&gt;">
						<g id="&lt;Group&gt;">
							<path id="&lt;Path&gt;" class="s4" d="m1082.7 1010.4c15.3 27.6 9.6 59.9-12.7 72.1-22.2 12.3-52.6-0.1-67.8-27.6-15.2-27.6-9.5-59.9 12.7-72.2 22.2-12.3 52.6 0.1 67.8 27.7z"/>
						</g>
						<g id="&lt;Group&gt;">
							<path id="&lt;Path&gt;" class="s4" d="m1355 928.9c2.4 31.4 24.9 55.2 50.3 53.3 25.3-2 43.9-29 41.4-60.4-2.4-31.4-24.9-55.3-50.2-53.3-25.4 1.9-43.9 29-41.5 60.4z"/>
						</g>
					</g>
					<g id="&lt;Group&gt;">
						<path id="&lt;Path&gt;" class="s4" d="m1401.9 946.8c14.5 99.6-44.7 205.7-98.3 223.1-41 13.3-208.2-20.2-253.4-134.3-39.9-100.5-59.7-152.5-59.7-152.5-24.1-95.3 33.1-192 127.7-215.8l48.5-12.2c94.6-23.8 177.1 23.3 201.3 118.5 13.5 53.2 19.4 73.6 33.9 173.2z"/>
						<g id="&lt;Group&gt;">
							<path id="&lt;Path&gt;" class="s13" d="m1131.4 1027.7c2 6 18.1 5.8 36-0.3 17.9-6.2 30.7-16 28.6-21.9-2-5.9-18.1-5.8-36 0.4-17.8 6.1-30.7 15.9-28.6 21.8z"/>
							<path id="&lt;Path&gt;" class="s13" d="m1313.9 975.5c2 5.9 18.1 5.7 36-0.4 17.8-6.2 30.7-15.9 28.6-21.9-2-5.9-18.1-5.7-36 0.4-17.8 6.1-30.7 15.9-28.6 21.9z"/>
						</g>
						<g id="&lt;Group&gt;">
							<path id="&lt;Path&gt;" class="s14" d="m1348.9 916.2c-2.5 17.9-14.7 32.9-29.1 33.9-14.3 1-28.7-12-34.1-29.1 4.3-16.4 11.8-33.2 24.9-37.2 8.9-2.7 18.6 1.3 26.5 8.1 4.4 3.9 8.3 8.5 12 13.5 0.4 3.7 0.3 7.3-0.2 10.8z"/>
							<path id="&lt;Path&gt;" class="s5" d="m1285.7 921c0.1-8.4 2.8-19.9 7.6-26.4 4.8-6.5 11.7-11 19.1-12.6 14.4-3.2 29.3 6.3 40 17.5l16.1-10-19.3 23.9c0 0-12.4-30.1-36.2-24.5-20.9 5-27.3 32.1-27.3 32.1z"/>
							<path id="&lt;Path&gt;" class="s5" d="m1341.5 893.5c0 0 7-3.5 9.5-9.7 0 0-2.1 8.9-5.1 11.9z"/>
							<path id="&lt;Path&gt;" class="s5" d="m1341.2 912.4c3.2 17.5-3.8 33.9-15.6 36.7-11.8 2.8-24-9.1-27.2-26.5-3.2-17.5 3.8-33.9 15.6-36.7 11.8-2.8 24 9.1 27.2 26.5z"/>
							<path id="&lt;Path&gt;" class="s14" d="m1330.5 907.4c0.4 1.8-0.7 3.6-2.3 3.9-1.6 0.4-3.2-0.7-3.5-2.5-0.4-1.8 0.7-3.6 2.3-4 1.6-0.4 3.2 0.8 3.5 2.6z"/>
							<path id="&lt;Path&gt;" class="s14" d="m1332.8 920.4c0.7 4.2-1.7 8.3-5.4 9.2-3.7 0.9-7.4-1.8-8.2-6-0.7-4.1 1.7-8.2 5.4-9.1 3.8-0.9 7.4 1.8 8.2 5.9z"/>
						</g>
						<g id="&lt;Group&gt;">
							<path id="&lt;Path&gt;" class="s14" d="m1124.7 976.3c11 14.8 30 22.5 44.3 16.6 14.2-5.8 21.6-24 18.5-41.8-12.1-12.6-27.4-24-41.9-21.5-9.8 1.8-17.2 9.9-21.4 19.6-2.3 5.5-3.8 11.5-5 17.6 1.5 3.4 3.4 6.6 5.5 9.5z"/>
							<path id="&lt;Path&gt;" class="s5" d="m1187.5 951.1c-4.1-7.4-12.3-16.4-20.1-19.9-7.7-3.6-16.5-4.4-24.4-2.4-15.3 3.9-25 19.4-29.7 34.3l-20.3-1.4 30.1 12.3c0 0-2.8-32.6 22.7-38.7 22.5-5.3 41.7 15.8 41.7 15.8z"/>
							<path id="&lt;Path&gt;" class="s5" d="m1120.5 953.5c0 0-7.7 1-13.2-2.8 0 0 6.6 6.3 10.8 7.1z"/>
							<path id="&lt;Path&gt;" class="s5" d="m1133.1 968.7c4.2 17.2 17.9 28.7 30.7 25.7 12.7-3.1 19.6-19.4 15.4-36.6-4.2-17.2-17.9-28.7-30.6-25.7-12.8 3-19.7 19.4-15.5 36.6z"/>
							<path id="&lt;Path&gt;" class="s14" d="m1167.3 955c0.5 1.8 2.2 2.9 4 2.5 1.7-0.4 2.8-2.2 2.3-4-0.4-1.8-2.2-2.9-3.9-2.5-1.8 0.4-2.8 2.2-2.4 4z"/>
							<path id="&lt;Path&gt;" class="s14" d="m1155.8 969c1 4.4 5.4 7.1 9.7 6.1 4.4-1 7-5.4 5.9-9.9-1.1-4.4-5.4-7.1-9.8-6.1-4.3 1-6.9 5.5-5.8 9.9z"/>
						</g>
						<path id="&lt;Path&gt;" class="s0" d="m1299.5 865.5c11.5-1.7 23.2-1.8 34.8-2.5 4.1-0.2 7.9-0.5 11.5-0.5 3.9 0-15.1-6.5-27-6.5-10.8 0.1-30.4 1.6-36 3.2-8 2.2-16.6 9.4-19.6 17.9-1.4 3.8 4.4 6.9 9.5 2.4 0 0 9.4-11.4 26.8-14z"/>
						<path id="&lt;Path&gt;" class="s0" d="m1142.1 909.2c-10.5 4.9-20.4 11.2-30.5 17-3.5 2.1-6.9 3.9-9.9 5.9-3.2 2.1 9.1-13.8 19.1-20.3 9-5.9 26.3-15.3 31.8-17.1 7.9-2.5 19-1.3 26.2 4.1 3.3 2.5 0.2 8.3-6.6 7.3 0 0-14.1-4.3-30.1 3.1z"/>
						<g id="&lt;Group&gt;">
							<path id="&lt;Path&gt;" class="s15" d="m1180.9 1053.8c0 0.1 15.7-3.7 24.9-8.3 22-8.4 80.3-32.2 107.4-40 10.1-1.8 25.5-8.5 25.4-8.5 0 0.2-13.3 29.1-16.2 44.8-3.2 15.8-10 36.1-39.4 48-29.2 11.3-62.3-8.2-73.5-17.9-10.7-9.9-28.6-18.1-28.6-18.1z"/>
							<path id="&lt;Path&gt;" class="s16" d="m1243.7 1073.7c-15.3-2.2-20.4-4.2-33.7-11.6-4.7-2.6-12.9-5.1-17.3-6.8 2.1-0.5 11.8-1.5 27.8-8.1 7.4-2.8 33.4-8.4 46-14 18.1-7.8 17-9 35.9-16.7 18.1-7.9 26.1-10.8 31.3-13.7-4.6 8.4-22.9 36.9-29.1 46.4-7.8 13.8-45.8 27.5-60.9 24.5z"/>
							<path id="&lt;Path&gt;" class="s17" d="m1310.4 1020.2c1.1-3.7 2.4-7.3 2.8-8.3-2.7 0.9-7 2.9-11.1 4.7-12.2 5.1-19.7 9.5-44.8 18.7-13 4.7-29.5 8.9-36.8 11.9q-2.4 1-4.5 1.8 0.8 0.8 1.5 1.6c4.9 5.1 13.1 7.6 20.3 5.8 21.5-5.5 42.3-13.4 62-23.5 5-2.5 8.9-7.3 10.6-12.7z"/>
							<path id="&lt;Path&gt;" class="s18" d="m1271.7 1057c-15 5.9-42.3 6.8-45.3 13 4.8 1.6 9.9 2.7 17.3 3.7 15.1 3 53.1-10.7 60.9-24.5 2-3.3 5.3-8.3 9.1-14-12.1 0.5-25.5 15.6-42 21.8z"/>
						</g>
						<path id="&lt;Path&gt;" class="s19" d="m1267.9 1017.1c-0.9 0-1.8-0.4-2.4-1.2-1-1.3-0.8-3.2 0.5-4.2 6.2-4.8 11.8-10.1 11.6-16.5-0.2-3.8-2.5-7.4-4.9-11.3-3.2-5.1-6.5-10.3-5.4-16.7 0.2-1.6 1.8-2.7 3.4-2.5 1.6 0.3 2.8 1.9 2.5 3.5-0.7 4.1 1.9 8.2 4.6 12.5 2.7 4.4 5.6 8.9 5.8 14.3 0.3 9.1-6.8 15.9-13.8 21.4-0.6 0.5-1.2 0.7-1.9 0.7z"/>
					</g>
					<path id="&lt;Path&gt;" class="s20" d="m1259.9 702.6c65 15.5 134.9 174.2 134.9 217 23.6-40.8-0.3-98-13.8-142.9-13.8-46.3-68.7-169.8-172.9-149-104.2 20.7 23 68.1 51.8 74.9z"/>
					<g id="&lt;Group&gt;">
						<path id="&lt;Path&gt;" class="s20" d="m1387.6 891.9c2.6 41.9 0.4 82.2 2.9 124.1 2.5 41.8 11.3 87.6 33.2 124.4 18.1 30.3 46.8 51.4 69.2 47.8-23.5-17.9-43.3-53-52.8-88.1-12-44.2-10.2-97.9-11.4-141-1.5-57.6-29.1-144.9-73-179.7 0 0 29.1 69 31.9 112.5z"/>
						<path id="&lt;Path&gt;" class="s20" d="m971.7 967.4c-8.1 33.4-21.5 64.2-30.2 97.2-8.7 33.1-12.4 70.4-1.1 103.1 9.4 27 31.5 48.7 54 50.1-17.9-18.3-27.7-49.3-27.5-78.4 0.3-36.7 16.2-78.1 26.6-112 13.9-45.1 10.5-118.2-22.6-153.5 0 0 6.9 68.6 0.8 93.5z"/>
						<path id="&lt;Path&gt;" class="s20" d="m993.6 902.9c3.3 126 60.4 253.8 164.3 325.1-70.4-97.9-106.2-220.2-99.9-340.7z"/>
						<path id="&lt;Path&gt;" class="s20" d="m1210.4 640.4c-62.3-24.7-135.3-3.1-183.1 43-48.3 46.6-71.9 118.4-66.7 188.3 4.4 60.5 29.3 119 66.6 166.6-6.4-52.4-2.4-95.8 29-135.7 5-2.6 21.2-16.1 25.7-19.2 33.2-23.5 54.5-63.7 57.9-105.9-1 37.9-14.1 75.5-38 105 40.3-0.2 80.3-16.8 109-45.2 12.7-12.7 23.2-27.6 30.9-43.8 2.4 15.6 3 31.5 1.6 47.1 32.5-23 49.8-67 42.7-108.2-7-40.4-38.1-77.2-75.6-92z"/>
						<path id="&lt;Path&gt;" class="s0" d="m1246.2 833.1c1.8-19.7-1.8-32.7-5.8-52.5-18.4 53.2-74.1 81.9-128.9 96.4 34.5-31.3 40-88.9 24-125.5 3.5 70.4-34.6 107.7-77.3 143.4-1.7 1.6-2.3 4.7-2.2 8q0.1-0.1 0.2-0.3c5-2.6 21.2-16.1 25.7-19.2 33.2-23.5 54.5-63.7 57.9-105.9-1 37.9-14.1 75.5-38 105 40.3-0.2 80.3-16.8 109-45.2 12.7-12.7 23.2-27.6 30.9-43.8 2.4 15.6 3 31.5 1.6 47.1 27.8-19.7 44.5-54.9 44.3-90.5-5.8 27.2-9.8 68.1-41.4 83z"/>
						<path id="&lt;Path&gt;" class="s20" d="m1019.4 715.4c-41.1 22.4-64.7 68.8-70.6 115.2-5.8 46.4 3.6 93.3 14.7 138.8 11 45.4 23.8 91 24.7 137.8 0.7 39.1-6.7 80.2 8.7 116.2 10.1 23.9 38.6 40 53 61.6 39 59 29.5 144.1-9.2 203.2 22.3-7.5 61.6-42 71.1-96.8 9-52.4-0.7-88.8-19-118.2-15.5-24.9-33-47.3-48.3-72.3-19.4-31.7-17.6-71.5-15.1-108.6q5.8-87 11.7-174z"/>
						<path id="&lt;Path&gt;" class="s20" d="m1593.7 1325.3c12.6-33.2 10.6-72-6.7-103.1-25-45-78.7-74.8-86.3-125.7-4.6-30.9 9.6-61.8 7.3-93-4.2-55.5-57.4-93.5-80.6-144.2-15.5-33.8-17.1-72.4-29.2-107.6-29.5-85.3-123.1-147.6-220.2-116.2-55.8 18.1 0.1 58.4 50.5 44.8 114.8-31 138.2 49.5 141.3 116.2 1.9 42.5 11.4 85.2 36.1 119.8 20.9 29.4 47.4 49.8 60.7 83.3 10.5 26.3 3.3 55.9-2.8 83.6-6 27.6-10.3 58.6 4.8 82.6 18.7 29.5 58.4 36.1 86.5 56.8 34 25 49.4 73.1 34.1 113q2.5-5.1 4.5-10.3z"/>
						<path id="&lt;Path&gt;" class="s0" d="m1238 798.3q-0.4 0.1-0.9 0c-1.2-0.2-2-1.3-1.8-2.5 6.1-35.7 1.2-73.6-13.8-106.6-0.5-1.1 0-2.4 1.1-2.9 1.1-0.5 2.4 0 2.9 1.1 15.3 33.8 20.3 72.6 14.1 109.2-0.2 0.8-0.8 1.4-1.6 1.7z"/>
						<path id="&lt;Path&gt;" class="s0" d="m1056.5 904.2q-0.6 0.1-1.2 0c-1.1-0.3-1.8-1.4-1.6-2.6 6.4-27.1 7.6-55.9 3.5-83.4-0.2-1.2 0.7-2.3 1.8-2.4 1.2-0.2 2.3 0.6 2.5 1.8 4.1 28 2.9 57.4-3.5 85-0.2 0.8-0.8 1.3-1.5 1.6z"/>
						<path id="&lt;Path&gt;" class="s21" d="m1174.6 672.9q-9.1 4.7-18.2 9.4c-2.2-5.9-11.3-6.8-15.5-2.4-3.7-0.7-7.7 1-10.1 5.2q-0.2 0.2-0.3 0.5-1.5-8.5-2.9-17.1c-1.3-8.4-13.6-9.5-17.2-2.4q-0.3-3.4-0.7-6.8c-1.3-11.2-18.8-8.5-18.1 2.6q0.7 10.8 0.9 21.7c-4-4.7-12.7-5.4-15.3 2-3.3 9.5-2.8 18.9-2.2 28.6q-0.7 0.1-1.3 0.4c-2.1 0.8-4.3 2.8-5.1 4.8-0.4 1.1-0.6 2.2-0.6 3.4q-6.3 3.2-12.4 6.8c-2.4-0.9-5.1-1.1-8.1-0.2-3.8 1.2-6.7 3.8-8.9 7.1q-0.4-0.5-0.8-1c-2-2.5-5.3-3.5-8.4-3.1q-0.6-3.1-1.2-6.2c-1.7-9-17.5-10-18 0.4q-0.6 11.6-1.2 23.2c-0.3 5.8 0 12-0.8 17.8-2.4 0.8-5.5 1.3-7.4 1.8-11.3 3.2-4.5 19.1 6.7 15.9 5.3-1.5 9.5-2.8 12.5-4.8q1.7 9.3 3.5 18.7c2.1 10.8 19.8 8.4 18.1-2.6-1.4-8.8-2.5-17.7-3.2-26.6q-0.2-2-0.4-4.1c3.7-0.1 7.6-2.1 9.1-5.4q2-4.4 4.1-8.8 0.6-1.3 1.2-2.6c2.1 0.3 4.5-0.1 6.8-1.6 5.9-3.6 11.8-7 18-10.1 0.7 3.4 1.6 6.7 2.8 9.9 2.8 7.2 8.7 13.6 17.2 14.4 2.6 0.2 5.2-0.1 7.6-0.8 1.3 5.1 2.7 10.2 4.3 15.2 3 9.5 18.5 4.8 17.5-4.7-1.7-15.2-2.5-30.4-2.5-45.6 4.7 1.5 10.7-0.9 12.2-7 1-4.4 2.4-8.6 4-12.8 4.3 2.9 10.3 1.9 13.2-2.8q0.1-0.1 0.3-0.2 13.7-7.1 27.5-14.2c10.3-5.4 3.7-21.4-6.7-15.9z"/>
					</g>
				</g>
				<g id="&lt;Group&gt;">
					<path id="&lt;Path&gt;" class="s4" d="m1092.1 1952c0 0 96.2-11.4 121-10.3 0 0 9.1-59.9-19.7-77 0 0-87.6 6.6-117.9 8.2-30.3 1.6-17 82.8 16.6 79.1z"/>
					<g id="&lt;Group&gt;">
						<g id="&lt;Group&gt;">
							<path id="&lt;Path&gt;" class="s22" d="m1247.7 1882.2c26.7 10.5 50.9 33.8 76.4 27.3 7.5-1.8 19.6-10 32-17.7 12.4-7.9 25.1-15.1 32.1-17 11.7-2.9 22 6.2 13.6 11.1-8.9 5.2-25.4 17.9-42.1 30-16.9 11.8-33.8 23.2-47.9 23-23-0.3-57.5-0.9-77.3-20-7.6-7.2 3.5-40.3 13.2-36.7z"/>
							<path id="&lt;Path&gt;" class="s22" d="m1233.9 1871.8c25.1 8.9 48.5 29.7 72.4 23 7.1-1.9 18-9.6 29.4-16.2 11.3-6.9 22.9-12.7 29.7-12.6 9.1 0.4 14.5 8.5 7 13.3-9.2 5.9-22.3 16.2-35.9 25.4-13.6 9-27.7 17.1-41 17.5-21.9 0.4-54.8 0.5-73.6-16.5-7.2-6.3 2.8-37.2 12-33.9z"/>
						</g>
						<g id="&lt;Group&gt;">
							<g id="&lt;Group&gt;">
								<path id="&lt;Path&gt;" class="s23" d="m1346.2 1897.5h-62.1c-50 0-90.5-40.6-90.5-90.5v-64.1h243.1v64.1c0 49.9-40.5 90.5-90.5 90.5z"/>
								<path id="&lt;Path&gt;" class="s24" d="m1211.3 1742.9h-17.7v64.1c0 49.9 40.5 90.5 90.5 90.5h44.6c-28.6-7.4-56-22.2-75.8-41.1-28.6-31-38-72.6-41.6-113.5z"/>
								<path id="&lt;Path&gt;" class="s25" d="m1378 1742.9h-23.2l1.8 116.1c18.8-29.5 21.4-46.5 21.4-116.1z"/>
							</g>
							<path id="&lt;Path&gt;" class="s23" d="m1394.5 1886h-159.1v11.6h159.1z"/>
						</g>
						<path id="&lt;Path&gt;" class="s4" d="m1232 1845.9c10.6-9.3 44.4-12.7 80.2-37 11.2-7.9 39.4-13.8 39.1 6.6-0.2 10.1-16.8 24-33 37.1-16.4 12.9-32.4 25.2-36.2 28.8-3.9 3.6-15.1 10.5-26.4 17.1-11.4 6.7-22.9 12.9-28.6 14.3-5.8 1.3-12.2-8.2-13.8-21.6-1.4-13.3 2.3-31.1 18.7-45.3z"/>
						<path id="&lt;Path&gt;" class="s4" d="m1268.9 1877.5c31 8.4 59.7 25 90.4 22.5 32-2.1 45.7 0.2 77.9 0.6 20.6 0.9 23.2 21.5 12.7 21.6-38.6 0.4-71.3-0.1-104.7 1-27.5 0.8-66.9 9.4-90-7.9-8.9-6.4 2.3-40.6 13.7-37.8z"/>
						<path id="&lt;Path&gt;" class="s4" d="m1269.7 1884.1c26 11.5 49.1 37.4 74.7 36.9 26.6-0.2 39-5.2 66-2.9 9.3 0.7 17.8 22.9 9.2 21.6-28.4-3.6-60.8 4.6-88.5 3.5-11.3-0.4-30.4-0.1-47.5 0.8-17.2 0.6-32.4 1.4-36.4-1.5-3.9-3.1-1.4-18.6 4.1-33.1 5.4-14.3 13.9-27.3 18.4-25.3z"/>
						<path id="&lt;Path&gt;" class="s4" d="m1226.1 1846.3c0 0-14.8 6.4-30.2 15.5-15.4 8.9-31 20.7-34.9 28.5-8.1 15.6-3 36.2 15.4 46.1 9.1 4.8 28.7 6.8 47.3 8.1 18.8 1.5 36.7 1.9 44 1 7.3-1.2 12.8-10.5 17.2-21.9 4.2-11.5 7.2-25.2 8-34.9 0.9-9.7-0.8-27.2-10.4-39-9.4-11.6-27.7-18.2-56.4-3.4z"/>
					</g>
				</g>
				<path id="&lt;Path&gt;" class="s1" d="m641.5 1958c0 0 11.8 35.3 32.9 50.1 16.7 11.7 345.4-23.7 439.5-4.9 33.3 6.7 39.5-26.1 39.5-26.1l16.2-20.8-15.2-115.7-23.1-10.7c0 0-21.3-39.5-49.6-31.1-42.7 12.8-255 15.8-315.3 21.2-85.3 7.5-144.9 100.4-124.9 138z"/>
			</g>
			<g id="&lt;Group&gt;">
				<g id="raw and hot pot">
					<g id="&lt;Group&gt;">
						<g id="&lt;Group&gt;">
							<path id="&lt;Path&gt;" class="s26" d="m803.7 2490.9c1.4-0.8 3-1.1 4.7-1.3 1.6-0.1 3.3 0.1 4.9 0.6 3.4 0.9 5.9 3.3 8.9 4 3 0.8 6.3 0.5 9.3-0.3 1.5-0.4 3-1 4.5-1.6 1.5-0.6 3-1.3 4.4-1.9-2.7 1.7-5.5 3.3-8.6 4.4-3.1 1-6.5 1.5-9.9 0.6-3.4-0.9-5.9-3.3-8.8-4.3-3-1.1-6.4-1.2-9.4-0.2z"/>
							<path id="&lt;Path&gt;" class="s26" d="m853.7 2519.8c-1.3-0.7-2.5-1.7-3.4-2.9-0.9-1.2-1.6-2.6-1.9-4.1-0.4-1.5-0.4-3.1 0-4.6 0.3-1.4 0.7-2.8 0.7-4.1 0-1.3-0.6-2.5-1.5-3.6-0.9-1.1-2-2-3-3.1-1.1-1.1-2.1-2.4-2.5-3.9-0.3-1.5-0.1-3.2 1.1-4.1-0.9 1.1-1 2.7-0.5 3.9 0.5 1.4 1.5 2.4 2.5 3.4 1.1 0.9 2.3 1.9 3.3 3.1 1.1 1.1 1.9 2.7 1.9 4.3 0 1.6-0.5 3.1-0.9 4.4q-0.5 2.1-0.2 4.1c0.2 1.4 0.8 2.8 1.5 4 0.7 1.2 1.8 2.3 2.9 3.2z"/>
							<path id="&lt;Path&gt;" class="s26" d="m837.7 2509.1c-1.2-1.3-2.4-2.7-3.3-4.4-0.8-1.7-1.1-3.7-0.6-5.5 0.3-1 0.9-1.8 1.5-2.5 0.6-0.7 1.3-1.2 1.8-1.9 0.6-0.6 0.9-1.3 1-2.1 0.1-0.8-0.2-1.7-1-2.2 1 0.2 1.5 1.3 1.6 2.2 0.1 1-0.2 2-0.8 2.8-1.1 1.5-2.5 2.5-2.9 4-0.4 1.5-0.2 3.3 0.4 4.9 0.6 1.6 1.5 3.1 2.3 4.7z"/>
							<path id="&lt;Path&gt;" class="s26" d="m826.6 2504.4c0.1-2.7 0.9-5.3 2.1-7.7 1.3-2.4 2.9-4.7 5.1-6.3-1.4 2.3-2.7 4.5-3.9 6.8-1.2 2.4-2.2 4.8-3.3 7.2z"/>
						</g>
						<path id="&lt;Path&gt;" class="s27" d="m933.2 2353.8c0 0 3.9-24.3 14.7-26 10.8-1.8 13.2-3.3 15.8-17.3 0 0 0.4 20-7.4 20.8-7.8 0.9-10.2 5.3-14.3 16.9-4.1 11.7-8.8 5.6-8.8 5.6z"/>
						<path id="&lt;Path&gt;" class="s28" d="m933.5 2361.3c0 0 21.6-24.5 19.2-35.1-4.2-18.4-1.3-36.3 6.6-50.4 0 0-21.1 24.6-19.2 38.5 2.9 21.9-16.9 32-21 36.7-4.1 4.7 14.4 10.3 14.4 10.3z"/>
						<path id="&lt;Path&gt;" class="s29" d="m834.8 2499.2c-56-38.7-73.8-86.4-50.2-134.4 10.1-19.2 24.9-32.1 44-38.4 10.8-3.6 22.9-5 36.1-4.3 20.3 1.1 37.9 7.1 44.5 9.7 9.6 3.7 15.8-1.6 24.3-8.9 1.6-1.4 3.3-2.8 5-4.2l25.7-22.7-4.4 7.7c-7.5 12.3-14.5 32.4-16.2 39-0.5 1.9-1 3.9-0.9 6.2 0.3 5.7 4.2 15 30.4 43.7 2.4 2.6 4.6 5.4 6.5 8.2 11.7 17.4 13.9 39 6.3 60.7-6.4 18.2-19.4 35.7-35.7 48-7.8 5.9-17.3 9.6-28.3 11.2-25.2 3.5-51.9-5.3-65.6-10.8-8.1-3.3-15.7-7.1-21.4-10.7z"/>
						<path id="&lt;Path&gt;" class="s27" d="m866.2 2506.3c-45.6-21.4-69.6-77.2-50.5-127.4 14.4-38.7 44.7-46.1 66.3-45.6 21.5 0.6 25-0.7 25.6-2.1-7.6-2.8-24.1-8.1-42.9-9.1-13.2-0.7-25.3 0.7-36.1 4.3-19.1 6.3-33.9 19.2-44 38.4-23.6 48-5.8 95.7 50.2 134.4h0.1c5.7 3.6 13.3 7.4 21.4 10.7 13.7 5.5 40.4 14.3 65.6 10.8 11-1.6 20.5-5.3 28.3-11.2q0.7-0.6 1.5-1.2c-28.7 9.2-60 9.2-85.5-2z"/>
						<path id="&lt;Path&gt;" class="s30" d="m923.2 2341.1c0 0-36.9 13.2-61.4 53.9-24.6 40.7-29.8 93.6-29.8 93.6 0 0 4.6-40.6 29.2-90.2 21.6-39.9 62-57.3 62-57.3z"/>
						<path id="&lt;Path&gt;" class="s31" d="m929.9 2350.3c0 0 1.9 30.6-26.3 74.7-27.4 42.9-58 69.3-58 69.3 0 0 32.4-25.8 59.7-68.5 26.1-41.1 24.6-75.5 24.6-75.5z"/>
						<path id="&lt;Path&gt;" class="s30" d="m896 2340.2c-8.2-1-16.6-0.4-24.6 1.4-8 1.9-15.5 5.1-22.3 9.5-6.7 4.5-12.7 10-17.7 16.4-4.9 6.4-9.1 13.4-12.7 20.6-7.2 14.4-11.8 30.3-11.9 46.6-0.1 8.1 1 16.3 3.6 24.1 2.6 7.8 6.8 15.1 12.5 21.3-6-5.9-10.5-13.2-13.4-21-2.8-7.8-4.2-16.2-4.3-24.4-0.1-8.3 1.1-16.5 3.1-24.5 2.1-8 5-15.7 8.6-23 3.8-7.3 8-14.4 13.1-20.8 2.6-3.2 5.3-6.3 8.4-9 3.1-2.8 6.3-5.4 9.8-7.5 7-4.4 14.9-7.6 23-9.2 4.1-0.8 8.2-1.3 12.4-1.4 4.1-0.1 8.3 0.1 12.4 0.9z"/>
						<path id="&lt;Path&gt;" class="s30" d="m952.3 2379c2.5 3.3 4.5 7 6.2 10.8 1.8 3.8 3.2 7.7 4.2 11.7 2.1 8.1 2.7 16.5 1.8 24.7-0.5 4.1-1.3 8.2-2.5 12.1-1.1 4-2.7 7.8-4.4 11.5-3.6 7.4-8.1 14.3-13 20.9-5.1 6.4-10.7 12.4-17 17.8-6.3 5.3-13.1 9.9-20.7 13.4-7.4 3.5-15.5 6-23.8 6.8-8.3 0.8-16.8 0-24.7-2.9 8 2.5 16.4 3.1 24.6 2 8.1-1.1 16-3.6 23.2-7.3 14.6-7.2 27-18.3 36.8-31.1 4.9-6.4 9.4-13.2 12.9-20.4 3.6-7.2 5.9-15 7.1-23 1-8 0.6-16.3-1.2-24.3-1.8-7.9-4.9-15.7-9.5-22.7z"/>
						<path id="&lt;Path&gt;" class="s30" d="m845.6 2495.6c17.8-1.7 35-6.8 50.5-15.1 7.8-4.1 15.1-8.9 21.9-14.5 6.7-5.5 13-11.7 18.5-18.5-4.9 7.2-10.8 13.9-17.5 19.7-6.6 5.9-14 10.9-21.9 15.1-7.9 4.1-16.2 7.4-24.9 9.7-8.6 2.3-17.6 3.5-26.6 3.6z"/>
						<path id="&lt;Path&gt;" class="s31" d="m908.3 2345.5c-7.4 1.3-14.7 3.3-21.5 6.3-6.8 3-13 7-18.5 11.9-5.6 4.9-10.4 10.5-14.7 16.5-4.3 6.1-8.1 12.4-11.8 18.9 3-6.8 6.4-13.5 10.5-19.8 4.1-6.2 9-12.1 14.6-17.1 5.7-4.9 12.2-9 19.3-11.8 7-2.8 14.6-4.3 22.1-4.9z"/>
						<path id="&lt;Path&gt;" class="s31" d="m943.7 2493.6c5.4-5.9 10.5-11.9 15.2-18.3l3.3-4.9 3-5c1-1.7 1.8-3.5 2.7-5.2 0.9-1.8 1.6-3.6 2.4-5.4 2.9-7.3 4.4-15.1 4.5-23 0.1-7.8-1.4-15.8-3.8-23.4 3.2 7.4 5.1 15.4 5.4 23.5 0.1 4-0.3 8.1-0.9 12-0.4 2-1 4-1.4 5.9-0.7 1.9-1.3 3.9-2 5.7-2.9 7.5-7.1 14.5-12 20.7-4.9 6.3-10.4 12.1-16.4 17.4z"/>
					</g>
					<g id="&lt;Group&gt;">
						<g id="&lt;Group&gt;">
							<path id="&lt;Path&gt;" class="s26" d="m655.1 2547.3c0.8-1.4 2-2.6 3.3-3.6 1.4-1 2.9-1.7 4.5-2.2 3.3-0.9 6.7-0.3 9.7-1.3 2.9-0.9 5.5-2.9 7.7-5.2 1.1-1.1 2-2.4 3-3.7 0.9-1.3 1.8-2.6 2.7-3.9-1.4 2.8-2.9 5.7-5 8.3-2 2.5-4.8 4.7-8 5.7-3.4 1.1-6.8 0.4-9.8 1.1-3.1 0.6-6 2.3-8.1 4.8z"/>
							<path id="&lt;Path&gt;" class="s26" d="m712.9 2545.2c-1.5 0.2-3-0.1-4.5-0.6-1.4-0.6-2.7-1.4-3.8-2.5-1.1-1-1.9-2.4-2.4-3.8-0.5-1.4-0.8-2.8-1.6-3.9-0.6-1.1-1.8-1.8-3.1-2.3-1.4-0.5-2.8-0.6-4.3-1-1.5-0.4-3-0.9-4.1-2-1.1-1.1-1.8-2.7-1.3-4.1-0.2 1.5 0.6 2.8 1.7 3.7 1.1 0.8 2.5 1.2 3.9 1.4 1.4 0.3 2.9 0.4 4.4 0.9 1.5 0.4 3 1.3 3.9 2.7 0.9 1.4 1.2 2.9 1.7 4.2q0.6 2 1.9 3.6c0.9 1 2.1 1.9 3.4 2.5 1.3 0.7 2.7 1.1 4.2 1.2z"/>
							<path id="&lt;Path&gt;" class="s26" d="m693.6 2544.6c-1.7-0.4-3.5-0.9-5.1-1.9-1.6-1-2.9-2.5-3.5-4.4-0.2-0.9-0.2-2 0-2.9 0.2-0.9 0.4-1.7 0.6-2.5 0.1-0.8 0-1.6-0.4-2.3-0.3-0.8-1-1.4-1.9-1.4 0.9-0.3 1.9 0.3 2.5 1 0.6 0.8 0.8 1.9 0.8 2.8-0.2 1.9-0.8 3.5-0.3 5 0.4 1.5 1.5 2.8 2.8 3.9 1.4 1 3 1.9 4.5 2.7z"/>
							<path id="&lt;Path&gt;" class="s26" d="m681.7 2546.6c-1.3-2.4-2-5-2.3-7.7-0.2-2.7 0-5.5 1-8 0 2.7 0.1 5.3 0.3 7.9 0.2 2.6 0.6 5.1 1 7.8z"/>
						</g>
						<path id="&lt;Path&gt;" class="s27" d="m692.1 2362.3c0 0-9.6-22.6-1.3-29.8 8.2-7.2 9.4-9.8 4.2-23 0 0 10.9 16.7 4.8 21.6-6.2 4.9-5.9 9.8-3.1 21.9 2.7 12-4.6 9.3-4.6 9.3z"/>
						<path id="&lt;Path&gt;" class="s28" d="m696.4 2368.6c0 0 5.3-32.3-2.4-40-13.4-13.4-20.4-30-21.2-46.2 0 0-4.8 32 4.2 42.8 14.1 17 2.6 36.1 1.7 42.3-1 6.2 17.7 1.1 17.7 1.1z"/>
						<path id="&lt;Path&gt;" class="s29" d="m685.9 2537.8c-68-3-108.4-34-113.9-87.3-1.6-21.6 4.1-40.4 16.9-55.9 7.3-8.7 16.8-16.4 28.3-22.8 17.8-9.8 36-14 42.9-15.4 10.1-1.9 12.5-9.7 15.9-20.4 0.6-2 1.2-4.1 2-6.3l9.7-32.8 0.3 8.9c0.3 14.4 5 35.1 7 41.6 0.6 1.9 1.2 3.9 2.6 5.7 3.3 4.7 11.5 10.5 48.9 21 3.5 0.9 6.8 2.1 9.9 3.5 19.1 8.5 32.5 25.6 37.6 48.1 4.2 18.8 2.5 40.5-4.9 59.6-3.5 9.1-9.5 17.3-18 24.5-19.5 16.3-46.8 23.1-61.3 25.6-8.6 1.5-17.1 2.4-23.8 2.4z"/>
						<path id="&lt;Path&gt;" class="s27" d="m716.3 2527.1c-50 6.1-100-28.4-110.4-81.1-8.4-40.5 13.4-62.8 31.9-73.8 18.6-11 20.8-13.9 20.6-15.4-7.9 1.6-24.6 5.9-41.2 15-11.5 6.4-21 14.1-28.3 22.8-12.8 15.5-18.5 34.3-16.9 55.9 5.5 53.3 45.9 84.3 113.9 87.3h0.1c6.7 0 15.2-0.9 23.8-2.4 14.5-2.5 41.8-9.3 61.3-25.6 8.5-7.2 14.5-15.4 18-24.5q0.4-0.9 0.7-1.8c-19.4 23-46 39.6-73.5 43.6z"/>
						<path id="&lt;Path&gt;" class="s30" d="m676.9 2356.9c0 0-24.2 30.8-23.5 78.3 0.8 47.5 24.5 95.1 24.5 95.1 0 0-17.7-36.8-23.1-91.9-2.9-45.3 22.1-81.5 22.1-81.5z"/>
						<path id="&lt;Path&gt;" class="s31" d="m687.4 2361.1c0 0 18 25 17.5 77.3-0.5 50.9-12.5 89.5-12.5 89.5 0 0 13.9-39 14.2-89.7 0.4-48.7-19.2-77.1-19.2-77.1z"/>
						<path id="&lt;Path&gt;" class="s30" d="m653.4 2370.6c-7.6 3.4-14.3 8.4-20.1 14.2-5.8 5.8-10.5 12.6-13.9 19.9-3.3 7.4-5.4 15.3-6.2 23.3-0.9 8-0.7 16.1 0.1 24.2 1.5 16 6.1 32 14.6 45.8 4.3 7 9.6 13.3 15.9 18.5 6.3 5.3 13.8 9.2 21.9 11.4-8.2-1.7-15.9-5.6-22.5-10.7-6.6-5.1-12.1-11.4-16.6-18.4-4.5-6.9-7.9-14.5-10.4-22.4-2.5-7.8-4.1-15.9-4.9-24-0.7-8.2-0.9-16.4 0-24.6 0.5-4.1 1.2-8.2 2.4-12.1 1.1-4 2.5-7.9 4.3-11.6 3.6-7.4 8.6-14.2 14.6-20 3-2.8 6.3-5.4 9.8-7.7 3.5-2.3 7.1-4.3 11-5.8z"/>
						<path id="&lt;Path&gt;" class="s30" d="m721.7 2373.6c3.9 1.5 7.5 3.5 11 5.8 3.5 2.3 6.8 4.9 9.8 7.7 6 5.8 10.9 12.6 14.6 20 1.8 3.7 3.2 7.6 4.3 11.6 1.1 4 1.9 8 2.3 12.1 1 8.2 0.8 16.4 0.1 24.6-0.9 8.1-2.4 16.2-4.9 24-2.6 7.9-5.9 15.5-10.4 22.4-4.5 7-10 13.3-16.6 18.4-6.6 5.1-14.3 9-22.5 10.7 8.1-2.2 15.6-6.1 21.9-11.4 6.3-5.2 11.6-11.5 15.9-18.5 8.5-13.8 13.1-29.8 14.6-45.8 0.7-8.1 1-16.2 0.1-24.2-0.8-8-2.9-15.9-6.2-23.3-3.4-7.3-8.1-14.1-13.9-19.9-5.8-5.8-12.6-10.7-20.1-14.2z"/>
						<path id="&lt;Path&gt;" class="s30" d="m693.2 2529c14.1-10.9 26-24.4 34.8-39.6 4.4-7.5 8-15.6 10.8-23.9 2.8-8.2 4.8-16.8 5.9-25.5-0.4 8.8-1.9 17.5-4.4 26-2.5 8.5-6.1 16.7-10.6 24.4-4.5 7.7-9.8 14.9-15.9 21.4-6.1 6.6-13.1 12.4-20.6 17.2z"/>
						<path id="&lt;Path&gt;" class="s31" d="m666.6 2368.6c-5.6 5-10.7 10.6-14.9 16.7-4.1 6.1-7.3 12.9-9.3 19.9-2.2 7.1-3.2 14.4-3.7 21.8-0.4 7.4-0.3 14.8 0 22.2-1.1-7.3-1.7-14.8-1.6-22.3 0.2-7.4 1.2-15 3.3-22.2 2.2-7.2 5.5-14.2 10.1-20.3 4.4-6.1 10-11.4 16.1-15.8z"/>
						<path id="&lt;Path&gt;" class="s31" d="m775.2 2475.2c1.5-7.8 2.6-15.6 3.2-23.5l0.2-5.9-0.1-5.9c-0.1-1.9-0.3-3.9-0.5-5.8-0.2-2-0.6-3.9-0.9-5.8-1.3-7.7-4.2-15.2-8.3-21.9-4.1-6.7-9.5-12.7-15.7-17.9 6.6 4.6 12.6 10.4 17 17.1 2.3 3.3 4.1 7 5.7 10.7 0.7 1.9 1.3 3.8 1.9 5.7 0.5 2 1 3.9 1.4 5.9 1.5 7.9 1.7 16 0.8 23.9-0.8 8-2.5 15.8-4.7 23.4z"/>
					</g>
					<g id="&lt;Group&gt;">
						<path id="&lt;Path&gt;" class="s32" d="m1077.5 2506.1c9.7-11 17.2-23.7 24.4-36.3 5.7-10.2 10.3-20.9 6.1-32.5-4.4-12-14.8-22.5-23.6-31.7-11.1-11.6-23.5-22.2-36.7-31.5-10.6-7.4-21.2-13.1-34.5-11.4-14.5 1.8-28.9 8.5-41.7 14.9-27.9 13.9-52.7 32.7-79.2 48.9-6 3.7-12.3 7.1-18.6 10.3 0-0.5-0.1-1-0.1-1.4-0.3-3.7-6.2-4.2-5.9-0.5 0.1 1.6 0.3 3.2 0.5 4.7-24.3 12-49.6 22.1-72.1 37-23.3 15.4-46.6 37-47.9 65.3-0.1 1.6 0.1 2.4 0.4 2.7q-0.1 0-0.1 0c1.1 1.6 2.7 3.9 4.5 5.7 15 7.1 34.5 4.9 50.5 2.3q6.9-1.1 13.8-2.2c0.4 0.3 0.6 0.6 1 0.9 2.1 1.8 5.2 0.1 5.3-1.9 25.6-4 51.3-7.5 77.1-10.1 29.3-2.9 58.7-4.8 88.1-5.8q1.2 1.3 2.3 2.5c2.3 2.5 6.1-0.2 5-2.8q2.1-0.1 4.1-0.2c14-0.3 28.2-0.2 41.7-3.8 14.3-3.8 26.1-12.3 35.6-23.1z"/>
						<path id="&lt;Path&gt;" class="s33" d="m778.9 2513.8c4.2-36.5 72.9-30.8 98.6-51.2 36.9-33.7 92.2-48.3 139.6-64.8 11.4-5.6 23.7-12.2 34-21.3q-1.7-1.2-3.4-2.4c-10.6-7.4-21.2-13.1-34.5-11.4-14.5 1.8-28.9 8.5-41.7 14.9-27.9 13.9-52.7 32.7-79.2 48.9-6 3.7-12.3 7.1-18.6 10.3 0-0.5-0.1-1-0.1-1.4-0.3-3.7-6.2-4.2-5.9-0.5 0.1 1.6 0.3 3.2 0.5 4.7-24.3 12-49.6 22.1-72.1 37-23.3 15.4-46.6 37-47.9 65.3-0.1 1.6 0.1 2.4 0.4 2.7q-0.1 0-0.1 0c1.1 1.6 2.7 3.9 4.5 5.7 15 7.1 34.5 4.9 50.5 2.3q5.3-0.9 10.6-1.7c-20.1-11-36.5-24.7-35.2-37.1z"/>
						<path id="&lt;Path&gt;" class="s34" d="m974.1 2525.4c-15.2-18.8-32.1-40.5-26.9-65.7 0.3-1.6-2.3-2.5-2.6-0.8-5.4 26.2 11.6 48.6 27.5 68.2 1.1 1.3 3.1-0.4 2-1.7z"/>
						<path id="&lt;Path&gt;" class="s35" d="m853.3 2503.1c-7-15.2-9.6-31.5-7.8-47.9 0.2-1.7-2.5-1.8-2.7-0.2-1.9 16.9 0.9 33.7 8.1 49.3 0.7 1.5 3.1 0.3 2.4-1.2z"/>
						<path id="&lt;Path&gt;" class="s34" d="m827.9 2538.3c-7.6-11-16.3-24.4-9.7-37.7 0.8-1.5-1.5-2.9-2.3-1.4-7.1 14.3 1.3 28.3 9.6 40.3 1 1.4 3.4 0.2 2.4-1.2z"/>
						<path id="&lt;Path&gt;" class="s34" d="m819.3 2538.8q-2.7-4.6-5.4-9.2c-0.8-1.4-3.2-0.3-2.4 1.2q2.7 4.6 5.4 9.2c0.9 1.5 3.3 0.3 2.4-1.2z"/>
						<path id="&lt;Path&gt;" class="s35" d="m1008.3 2448.4c-10.1-20.2-12.1-43.1-5.6-64.5 0.5-1.6-2.1-2.5-2.5-0.8-6.8 22-4.7 45.6 5.7 66.5 0.8 1.5 3.2 0.3 2.4-1.2z"/>
						<path id="&lt;Path&gt;" class="s35" d="m993.1 2395.9c-0.9-4-0.8-8 0.5-11.8 0.6-1.6-2-2.4-2.5-0.8-1.5 4.2-1.7 8.7-0.6 13.1 0.4 1.7 3 1.1 2.6-0.5z"/>
						<g id="&lt;Group&gt;">
							<g id="&lt;Group&gt;">
								<path id="&lt;Path&gt;" class="s36" d="m1114.2 2298.8c1.6-0.3 3.4 0.9 5.3 3.3q1.4 1.8 2.8 4.5 0.8 1.3 1.5 2.9 0.6 1.5 1.2 3.3 1.3 3.5 2.5 7.7 1 4.3 1.8 9.1c0.5 3.3 0.7 6.8 1 10.3 0.1 3.6 0 7.4-0.2 11.3-0.7 7.7-2.8 17.6-7.2 27.3-4.3 9.7-10.8 18.9-17.9 25.9-6.9 7-14.1 12.1-19.3 15.5-2.6 1.8-4.8 3-6.3 3.9-1.5 0.9-2.3 1.3-2.3 1.3 0 0 0.6-0.7 1.6-2.1 1-1.4 2.6-3.3 4.4-5.7 3.5-4.9 8.1-11.9 12-19.8 3.9-7.9 6.8-16.8 8.3-25.3 1.6-8.5 1.9-16.7 2.5-23.1 0.9-12.9 1.3-25.2 2.1-34.4q0.2-1.7 0.5-3.3 0.2-1.6 0.4-3 0.6-2.8 1.3-4.9c1-2.8 2.3-4.4 4-4.7z"/>
								<path id="&lt;Path&gt;" class="s36" d="m1296.7 2310.3c-5.3 10.7-12.1 21.5-20.1 31.6-8.1 10.2-17.4 19.9-27.5 28.7-10.1 8.9-21.1 16.9-32.1 23.9-11.1 7.1-22.4 13.1-33.4 18.3-22.1 10.5-43 17.7-59.9 22.6-17 4.8-30.2 7.5-37.4 8-13.8 0.9-22.9-5.7-19.2-17.3 1.9-5.9 7-13 16.1-21.1 9.1-8.1 22.3-17.2 39.7-27.7 17.4-10.4 33.6-20.2 48.6-29.6 7.4-4.8 14.7-9.4 21.4-14 3.5-2.2 6.7-4.7 10-6.9q2.4-1.7 4.8-3.5 2.5-1.6 4.8-3.4c24.9-18.3 45.2-36.8 61.3-54.4 4.1-4.4 7.6-8.6 10.9-12.2q2.3-2.8 4.5-5.1 2.3-2.4 4.1-4.2c5-5.1 9.4-7.3 12.5-5.2 1.6 1 3 3.2 3.9 6.6 0.5 1.7 1 3.7 1.2 6q0.3 3.5 0.2 8c-0.2 6-1.2 13.3-3.4 21.9-0.5 2.2-1.2 4.4-1.9 6.7-0.8 2.2-1.5 4.6-2.4 7.1-1.9 4.7-4 10-6.7 15.2z"/>
								<path id="&lt;Path&gt;" class="s36" d="m1238.6 2455.5c0-2-0.4-3.9-0.9-5.3-0.5-1.4-1.1-2.2-1.8-2.8-0.7-0.7-1.7-1.5-3.5-2.6-1.7-1-4.2-2.1-7.2-3.2q-4.5-1.5-10.3-2.9c-1.8-0.5-3.7-1-5.6-1.4-1.9-0.4-3.8-0.9-5.7-1.3-7.5-1.6-15.1-2.8-22.4-3.6-7.3-0.9-14.4-1.5-21.1-1.7-3.4-0.2-6.6-0.2-9.7-0.2-3.1 0-6.1 0-8.9 0-11.2 0.3-20 0.9-24.8 0.8-4.5-0.2-8.2-1.2-10.5-3.3-2.2-2-2.9-5-1.2-8.7 1.7-3.7 6-8.3 13.9-12.8 7.9-4.6 19.5-9.1 35.7-11.6 8.1-1.2 16.2-1.8 24.1-1.9 8 0.1 15.8 0.5 23.4 1.6 3.8 0.5 7.5 1.2 11.2 1.9 3.6 0.9 7.2 1.6 10.7 2.7 6.8 1.8 14.3 4.4 21.6 8.3 3.7 2 7.4 4.3 10.8 7.2 3.5 3 6.7 6.5 9.3 10.4 2.6 3.9 4.5 8.4 5.5 12.6 1 4.3 1.2 8.4 1 12.1-1.2 15.1-9.3 25.6-16.7 31.8-3.8 3.2-7.4 5.4-10.7 7.1-3.2 1.7-6.1 2.8-8.5 3.5-4.8 1.3-7.9 1-8.9-1.3-0.9-2.3 0.5-6.5 3.6-12.7 1.5-3.1 3.4-6.7 5-10.6 0.7-1.9 1.5-4 1.9-6 0.4-1.9 0.7-4 0.7-6.1z"/>
								<path id="&lt;Path&gt;" class="s36" d="m1174.8 2306.3c-5.8 18.3-13.5 42.4-23.3 63.3-4.9 10.5-10.6 20-15.9 27.3-2.9 3.6-5.3 6.7-7.8 9.1-2.5 2.4-4.4 4.3-6.1 5.3-3.2 2-6.2 2.7-8.4 2.1-2.3-0.6-3.9-2.6-4.5-5.6q-0.5-2.3-0.2-5.4c0.1-1.1 0.3-2.1 0.5-3.3q0.2-1.9 0.7-3.9 0.4-2.1 1.1-4.3 0.6-2.4 1.4-5 0.4-1.3 0.8-2.7 0.5-1.4 0.9-2.9c0.6-2.1 1.4-4.1 2.1-6.4 3-9.1 5.9-18.1 9.2-26.7 3.1-8.7 6.5-17 10.3-24.8 7.5-15.5 16.7-28.8 26.3-37.7q3.6-3.3 6.7-5.6c2.1-1.4 4.1-2.5 5.7-3.2 3.4-1.4 5.6-1.3 6.8 0.3 1.1 1.5 1.1 4.7-0.2 9.3-0.5 2.5-1.3 5.4-2.4 8.7q-0.8 2.6-1.7 5.6c-0.6 2-1.3 4.1-2 6.5z"/>
								<path id="&lt;Path&gt;" class="s36" d="m1153.8 2453.2c-13.3-2.7-29.7-6-44.2-7.8-14.4-1.9-26.9-2.3-31.5-3.4-4.3-0.9-6.8-3.7-4.6-7.2 2.2-3.3 9.3-7.6 24.2-9.2 15-1.4 29.1 0.3 41 3.9 11.9 3.5 21.6 8.8 28.6 14.1q2.6 2.1 4.5 3.8 1.8 1.9 2.9 3.3c1.4 2 1.7 3.5 0.8 4.3-1.8 1.9-8.4 0.8-21.7-1.8z"/>
							</g>
							<path id="&lt;Path&gt;" class="s37" d="m1111.7 2310.5c3.3-11 6-8.8 9.4-6.1q-0.8-1.3-1.6-2.3c-1.9-2.4-3.7-3.6-5.3-3.3-1.7 0.3-3 1.9-4 4.7q-0.7 2.1-1.3 4.9-0.2 1.4-0.4 3-0.3 1.6-0.5 3.3c-0.8 9.2-1.2 21.5-2.1 34.4-0.6 6.4-0.9 14.6-2.5 23.1-1.3 7.4-3.7 15.1-6.9 22.2-5.1 3.7-9.6 7.3-13.3 10.6-8.5 7.6-13.5 14.3-15.6 19.9 17.5-15.6 26.2-25.1 31.3-27.8 13.5-7.3 11-80.5 12.8-86.6z"/>
							<path id="&lt;Path&gt;" class="s37" d="m1255.5 2481.6c7.4-6.2 15.5-16.7 16.7-31.8 0.2-3.7 0-7.8-1-12.1-1-4.2-2.9-8.7-5.5-12.6-2.6-3.9-5.8-7.4-9.3-10.4-3.4-2.9-7.1-5.2-10.8-7.2-7.3-3.9-14.8-6.5-21.6-8.3-0.6-0.2-1.3-0.4-2-0.5-0.8 1.1 65.3 26.7 39.6 67.6-6.2 12.8-19.5 20.7-34.3 23.9q0 0.4 0.1 0.7c1 2.3 4.1 2.6 8.9 1.3 2.4-0.7 5.3-1.8 8.5-3.5 3.3-1.7 6.9-3.9 10.7-7.1z"/>
							<path id="&lt;Path&gt;" class="s37" d="m1289.2 2248.2q-2.2 2.3-4.5 5.1c-3.3 3.6-6.8 7.8-10.9 12.2-16.1 17.6-36.4 36.1-61.3 54.4q-2.3 1.8-4.8 3.4-2.4 1.8-4.8 3.5c-3.3 2.2-6.5 4.7-10 6.9-6.7 4.6-14 9.2-21.4 14q-7 4.4-14.4 8.9 1.9-4.7 3.7-9.3c-5.7 6.5-10.9 13.3-13.7 20.9 49.9-31.5 100.6-66 138.2-113.2 6.5-7.3 17.4-9.5 25.4-5.1-0.2-1.7-0.6-3.2-1-4.5-0.9-3.4-2.3-5.6-3.9-6.6-3.1-2.1-7.5 0.1-12.5 5.2q-1.8 1.8-4.1 4.2z"/>
						</g>
					</g>
					<g id="&lt;Group&gt;">
						<g id="&lt;Group&gt;">
							<path id="&lt;Path&gt;" class="s38" d="m576.2 2453.3c0 52.9-58.5 95.8-111.6 95.8-51.5 0-111.7-42.9-111.7-95.9 0-28 8.6-65 31-82.5 19.8-15.6 43.5-19.8 80.7-13.3 9.4 1.7 27.4-2.8 44.4 0.4 16.9 3.1 32.9 13.8 43.1 23.1 18.9 17.2 24.1 46.9 24.1 72.4z"/>
							<g id="&lt;Group&gt;">
								<path id="&lt;Path&gt;" class="s39" d="m490.4 2376.1c0 0-13.1-19.3-20.9-11.4-3.6 3.7 7.3 5.1 14.3 10.7 9.2 7.5 12.3 7.9 6.6 0.7z"/>
								<path id="&lt;Path&gt;" class="s39" d="m437.5 2363.4c0 0 23.8-9.5 34.3 2.6 5 5.6-12.2 0.1-24 0.9-15.6 1.1-20.5-0.5-10.3-3.5z"/>
								<g id="&lt;Group&gt;">
									<path id="&lt;Path&gt;" class="s40" d="m479.4 2322.1c2.3 4.4-7.7 5.3-8.2 9.4-2.5 22 0.5 35.2 0.5 35.2h-7.6c0 0 1.8-27.8 0.5-35.2-0.6-3.5-2.4-7.3-2.9-9.4-0.5-2 6.7-8.5 9-8.5 2.3 0 4.1 4.1 7.2 7.7z"/>
									<path id="&lt;Path&gt;" class="s40" d="m469.7 2367.6c-0.4-1.2-8.9-9-17.2-13.9-8.3-4.9-3.1-16.3-5.1-21.5-2-5.1-2.6-18.6-2.6-18.6 0 0-0.4 22.6 0 30.1 0.4 7.5 1.3 15.2 6.1 19 4.7 3.7 18.8 4.9 18.8 4.9z"/>
									<path id="&lt;Path&gt;" class="s40" d="m464.9 2363c0 0 1.7-13.8 11.4-17.3 9.7-3.6 11.7-8.3 13.6-13.3 5.6-14.2 58.8-20.3 58.8-20.3 0 0-51.7 14.4-58.6 34.1-2.6 7.3-14.3 17.3-18.4 20.5-4 3.1-6.8-3.7-6.8-3.7z"/>
									<path id="&lt;Path&gt;" class="s40" d="m470.3 2360.7c0 0 32.9-7.3 55 10.9 0 0-24.2-13.3-54.2-6.2-3.4 0.5-2.4-4.4-0.8-4.7z"/>
								</g>
							</g>
						</g>
					</g>
					<g id="&lt;Group&gt;">
						<g id="&lt;Group&gt;">
							<path id="&lt;Mesh&gt;" class="s41" d="m1688.4 2515.4q-2.6-3.9-5.2-7.8c-10.4 2.1-17 9.3-17.5 19.1-0.3 6.7 2.2 14.5 6.9 22.1 11.1 1.6 16.7 1.2 24.1-2.9-5-6.5-6.9-11.2-7-15-0.1-5.6 4.6-13.6 7.3-22 0.2 0.3 0.2 0.4 0.3 0.2q-4.9 2.8-8.9 6.3zm8.9-6.3c-0.1 0.2-0.1 0.1-0.3-0.2-2.7 8.4-7.4 16.4-7.3 22 0.1 3.8 2 8.5 7 15 20.7-11.5 28.1-38.8 53.7-45.9-7.4-0.7-14.5-0.8-21.2-0.2-12.2 1.1-23.1 4.2-31.9 9.3zm-24.7 39.7c2.2 3.7 5 7.3 8.1 10.8q7.8 5.2 15.6 10.4c12.2 2.4 21.9-0.8 28.4-6.6-10.1-5.2-21.4-9.1-28-17.5-7.4 4.1-13 4.5-24.1 2.9zm24.1-2.9c6.6 8.4 17.9 12.3 28 17.5q2.7-2.4 4.6-5.3c6.1-9 7.8-20.6 10.9-31.3 3.1-10.7 7.9-21 18.8-25.7q-4.3-0.7-8.6-1.1c-25.6 7.1-33 34.4-53.7 45.9z"/>
							<path id="&lt;Mesh&gt;" class="s42" d="m1982.6 2515.4q-2.6-3.9-5.2-7.8c-10.4 2.1-17 9.3-17.5 19.1-0.3 6.7 2.2 14.5 6.9 22.1 11.1 1.6 16.7 1.2 24.1-2.9-5-6.5-6.9-11.2-7-15-0.1-5.6 4.6-13.6 7.3-22 0.2 0.3 0.2 0.4 0.3 0.2q-4.9 2.8-8.9 6.3zm8.9-6.3c-0.1 0.2-0.1 0.1-0.3-0.2-2.7 8.4-7.4 16.4-7.3 22 0.1 3.8 2 8.5 7 15 20.7-11.5 28.1-38.8 53.7-45.9-7.4-0.7-14.5-0.8-21.2-0.2-12.2 1.1-23.1 4.2-31.9 9.3zm-24.7 39.7c2.2 3.7 5 7.3 8.1 10.8q7.8 5.2 15.6 10.4c12.2 2.4 21.9-0.8 28.4-6.6-10.2-5.2-21.4-9.1-28-17.5-7.4 4.1-13 4.5-24.1 2.9zm24.1-2.9c6.6 8.4 17.8 12.3 28 17.5q2.7-2.4 4.6-5.3c6.1-9 7.8-20.6 10.9-31.3 3.1-10.7 7.9-21 18.8-25.7q-4.3-0.7-8.6-1.1c-25.6 7.1-33 34.4-53.7 45.9z"/>
							<g id="&lt;Group&gt;" style="mix-blend-mode: soft-light">
								<path id="&lt;Path&gt;" class="s43" d="m1866 2501.1c-6.1 13 10.8 27.6 2.4 40.3-3.4 5.1-10.3 9-18.1 11.8-10.3 3.7-22.1 5.5-33.2 7.9-6.7-4.7-7.8-11.6-5.1-17.5 2.6-5.9 8.4-11.2 14.6-16.2 11.9-9.6 25.2-18.7 39.8-27q-0.2 0.3-0.4 0.7z"/>
							</g>
							<path id="&lt;Mesh&gt;" class="s44" d="m1628.5 2490.7q3.8-3.3 7.7-6.6c15.6 3.8 25.5 11.9 26.4 21.4 0.6 6.4-3 13.5-9.8 20-16.6-0.4-26.8 2.6-37.8-2.6 7.3-5.3 10.3-10.2 10.5-14.3 0.5-6.2-5.7-17.1-9.9-25.6-0.2 0.3-0.3 0.3-0.4 0.1q7.3 3.5 13.3 7.6zm-13.3-7.6c0.1 0.2 0.2 0.2 0.4-0.1 4.2 8.5 10.4 19.4 9.9 25.6-0.2 4.1-3.2 9-10.5 14.3-31.1-14.6-41-46.5-79.3-57.7 11 0.6 21.7 1.8 31.7 3.5 18.2 3.1 34.5 8 47.8 14.4zm37.6 42.4c-3.3 3.1-7.3 6.2-12 8.9-7.7 2.5-14.8 3.6-18.6 3.6-18.3 0.1-37.2-0.9-47-7.5 15.1-3.2 30.1-0.7 39.8-7.6 11 5.2 21.2 2.2 37.8 2.6zm-37.8-2.6c-9.7 6.9-24.7 4.4-39.8 7.6q-4-2.8-7-5.9c-9.2-9.6-11.9-21.1-16.8-31.9-4.8-10.8-12.2-21.5-28.5-27.9q6.5 0 12.8 0.4c38.3 11.2 48.2 43.1 79.3 57.7z"/>
							<g id="&lt;Group&gt;" style="mix-blend-mode: soft-light">
								<path id="&lt;Path&gt;" class="s43" d="m1517.3 2490.8c13.8 10.9 7 28.1 22.7 38.1 6.1 4 15.1 6.2 24.1 7.2 11.8 1.2 23.9 0.5 35.8 0.3 3.3-5.8 0.1-12.4-6-17.4-6.1-5-14.8-8.6-23.6-12-17-6.4-35-12.1-53.7-16.7q0.3 0.2 0.7 0.5z"/>
							</g>
						</g>
						<g id="&lt;Group&gt;">
							<g id="&lt;Group&gt;">
								<path id="&lt;Path&gt;" class="s8" d="m2004.7 2504.4h-442.1c-34.6 0-62.7-28.1-62.7-62.7v-348.5h567.5v348.5c0 34.6-28.1 62.7-62.7 62.7z"/>
								<path id="&lt;Path&gt;" class="s45" d="m1795.6 2093.2h-149.4v411.2h149.4z"/>
								<path id="&lt;Path&gt;" class="s10" d="m1932.1 2093.2h-48.7v411.2h48.7z"/>
								<path id="&lt;Mesh&gt;" class="s46" d="m1500 2138.4q141.8 0 283.5 0 0-5.3 0-10.6-141.7 0-283.5 0 0 5.3 0 10.6zm0-10.6q141.8 0 283.5 0 0-6 0-12-141.7 0-283.5 0 0 6 0 12zm0-12q141.8 0 283.5 0 0-11.3 0-22.6-141.7 0-283.5 0 0 11.3 0 22.6zm283.5 22.6q141.9 0 283.7 0 0-5.3 0-10.6-141.8 0-283.7 0 0 5.3 0 10.6zm0-10.6q141.9 0 283.7 0 0-6 0-12-141.8 0-283.7 0 0 6 0 12zm0-12q141.9 0 283.7 0 0-11.3 0-22.6-141.8 0-283.7 0 0 11.3 0 22.6z"/>
								<g id="&lt;Group&gt;">
									<path id="&lt;Path&gt;" class="s5" d="m2086.3 2205.2h-19.2v-84.1h33.6c9.8 0 16.9 8.9 14.5 18.1l-14.4 55.1c-1.7 6.4-7.7 10.9-14.5 10.9z"/>
									<path id="&lt;Path&gt;" class="s5" d="m1480.8 2205.2h19.2v-84.1h-33.6c-9.8 0-16.9 8.9-14.5 18.1l14.4 55.1c1.7 6.4 7.7 10.9 14.5 10.9z"/>
								</g>
							</g>
							<g id="&lt;Group&gt;">
								<g id="&lt;Group&gt;">
									<path id="&lt;Path&gt;" class="s11" d="m1555.6 2095c63.3-47.4 158.3-57.6 229-26 7.5-6.7 17.4-11.2 28-12.8 11.6-1.8 23.8 0.2 34.1 5.2 26.8-12.7 58.6-17.5 88.7-13.3 34.9 4.9 67.3 21.8 88.6 46.3z"/>
									<path id="&lt;Path&gt;" class="s11" d="m2005.1 2057.2c0 3.4-2.8 6.2-6.2 6.2-3.4 0-6.2-2.8-6.2-6.2 0-3.4 2.8-6.2 6.2-6.2 3.4 0 6.2 2.8 6.2 6.2z"/>
									<path id="&lt;Path&gt;" class="s47" d="m1951 2061.4c0 2.3-2 4.1-4.5 4.1-2.5 0-4.6-1.8-4.6-4.1 0-2.3 2.1-4.1 4.6-4.1 2.5 0 4.5 1.8 4.5 4.1z"/>
									<path id="&lt;Path&gt;" class="s11" d="m1774.3 2046c0 5.8-5.2 10.4-11.5 10.4-6.4 0-11.5-4.6-11.6-10.3 0-5.8 5.2-10.4 11.5-10.4 6.4 0 11.5 4.6 11.6 10.3z"/>
									<path id="&lt;Path&gt;" class="s47" d="m1694.5 2062.3c0 1.7-1.5 3.1-3.4 3.1-2 0-3.5-1.4-3.5-3.1 0-1.7 1.5-3.1 3.4-3.1 2 0 3.5 1.4 3.5 3.1z"/>
									<path id="&lt;Path&gt;" class="s47" d="m1638.6 2070.6c0 4.1-3.7 7.4-8.3 7.5-4.5 0-8.2-3.4-8.2-7.5 0-4.1 3.7-7.4 8.2-7.4 4.6 0 8.3 3.3 8.3 7.4z"/>
								</g>
								<g id="&lt;Group&gt;">
									<path id="&lt;Path&gt;" class="s48" d="m2077.1 2100.8c0 12.4-130.2 22.7-290.8 22.9-160.6 0.2-290.8-9.7-290.9-22.1 0-0.4-0.2-4.8 0.1-5.2 8.5-11.8 135.7-17.4 290.7-17.6 152.9-0.2 278.8 5 290.6 16.5 0.6 0.6 0.3 4.9 0.3 5.5z"/>
									<path id="&lt;Path&gt;" class="s11" d="m2077.1 2095.8c0 10.1-130.2 18.5-290.8 18.7-160.7 0.2-290.9-7.8-290.9-17.9 0-10.1 130.2-19.7 290.8-19.9 160.6-0.3 290.9 9 290.9 19.1z"/>
								</g>
								<path id="&lt;Path&gt;" class="s49" d="m1957.5 2073.5c0 4.4-17.3 7.9-38.6 7.9-21.3 0.1-38.6-3.4-38.6-7.8 0-4.3 17.3-7.9 38.6-7.9 21.3 0 38.6 3.5 38.6 7.8z"/>
								<path id="&lt;Path&gt;" class="s49" d="m1735.2 2075.7c0 4.4-17.2 7.9-38.5 8-21.4 0-38.6-3.5-38.6-7.9 0-4.3 17.2-7.8 38.5-7.9 21.3 0 38.6 3.5 38.6 7.8z"/>
								<path id="&lt;Path&gt;" class="s50" d="m1987 2090.4c-4-0.1-8-0.1-12-0.4-4.2-0.3-8.5-0.7-12.7-1.1-9.2-0.8-18.5-1.6-27.8-1.5-7.3 0.2-15 0.8-21.7 3.6q1.5 0.7 3.1 1.3c7.5 2.5 15.9 2.8 23.8 2.8 7.9 0 15.7-0.6 23.6-0.6 22-0.1 43.8-1.8 65.8-3.2 10.7-0.6 21.4-1.2 32.1-1.4-4.9-0.9-10.7-1.7-17.5-2.5-7.6 1.8-15.5 2.8-23.3 3.2-11.1 0.6-22.3 0.2-33.4-0.2z"/>
								<path id="&lt;Path&gt;" class="s50" d="m1822.6 2108.1c-6.7 0.7-13.7 0.8-20 3.1 2.1 1.4 4.4 2.5 6.9 3.2 25.2-0.1 49.4-0.5 72.4-1-4.2-1.7-9-2.3-13.4-3-5.2-0.9-10.9-2-14.6-5.7-0.5-0.5-0.4-1.5 0.5-1.6 8.4-1.2 16.9-0.7 25.4-0.5 6.6 0.1 13.4 0.1 19.8-1.3-6.3-0.7-12.6-0.7-19-0.6-7 0.1-14 0.4-21.1 0.5-5.4 0-10.8-0.3-16.1-0.5-5.7-0.3-11.4-0.4-17.1 0-4.2 0.3-8.6 0.9-12.5 2.4 3 0.9 5.9 2.3 9.1 3 1.3 0.4 0.8 1.9-0.3 2z"/>
								<g id="&lt;Group&gt;">
									<path id="&lt;Path&gt;" class="s51" d="m1867 2077.2l7.6-5.6 4.9 5.6z"/>
									<path id="&lt;Path&gt;" class="s51" d="m1833.1 2072.3l-9-6.9-0.7 5z"/>
									<path id="&lt;Path&gt;" class="s51" d="m1889.5 2109.8l5.5-7.5 0.7 5.6z"/>
									<path id="&lt;Path&gt;" class="s51" d="m1797.9 2088.3h-9l-0.7 2.5 9 1.8z"/>
									<path id="&lt;Path&gt;" class="s51" d="m1716.4 2076.4l8.3-7.3 3.5 3.4v5.3z"/>
									<path id="&lt;Path&gt;" class="s51" d="m1591.1 2086.1l13.1-0.7-11 5.7z"/>
									<path id="&lt;Path&gt;" class="s51" d="m1750.1 2083.6l7.7 3.8 3.4-5.7z"/>
								</g>
							</g>
						</g>
						<g id="&lt;Group&gt;">
							<path id="&lt;Path&gt;" class="s5" d="m1820.7 2496h-74.3v42.6h74.3z"/>
							<path id="&lt;Path&gt;" class="s5" d="m1989.1 2496h-93.5l30.2 42.6h63.3z"/>
							<path id="&lt;Path&gt;" class="s5" d="m1578 2496h93.5l-30.2 42.6h-63.3z"/>
						</g>
						<g id="&lt;Group&gt;">
							<path id="&lt;Mesh&gt;" class="s52" d="m1721.1 2445.9q-6.2-4-12.3-8c-10.2 18.5-11.9 41.5-4.5 61.4 5 13.4 14.1 25.2 25.6 33.7 13.9-12.3 20.1-20.8 25.2-38.8-11-5.8-16.9-12.5-20-19.8-4.7-10.7-5.9-32.9-9.5-52.9 0.5 0.4 0.6 0.4 0.5 0-2.2 8-3.9 16.2-5 24.4zm5-24.4c0.1 0.4 0 0.4-0.5 0 3.6 20 4.8 42.2 9.5 52.9 3.1 7.3 9 14 20 19.8 14.4-50.9 0.9-114.5 24.4-163.5-9 8.8-17.2 18.5-24.4 28.8-13.1 18.8-23 39.9-29 62zm3.8 111.5c5.5 4 11.6 7.3 18 9.7q13.1-0.5 26.2-1c15.9-12.3 24.3-31.8 27.1-52.1-15.7 3.9-31.8 11.9-46.1 4.6-5.1 18-11.3 26.5-25.2 38.8zm25.2-38.8c14.3 7.3 30.4-0.7 46.1-4.6 0.7-5.5 1.1-11.1 1-16.7-0.3-25.7-7.6-50.7-12.8-75.8-5.1-25.2-7.8-51.9 0.8-76.1q-5.5 4.6-10.7 9.7c-23.5 49-10 112.6-24.4 163.5z"/>
							<g id="&lt;Group&gt;" style="mix-blend-mode: soft-light">
								<path id="&lt;Path&gt;" class="s53" d="m1821.1 2440.3c-6.2 22.3 10.7 47.2 2.3 68.9-3.3 8.5-10.3 15.3-18.1 20.1-10.2 6.2-22 9.4-33.2 13.4-6.6-8.1-7.7-19.7-5.1-29.8 2.6-10.2 8.5-19.1 14.6-27.6 11.9-16.5 25.3-31.9 39.8-46.1q-0.2 0.6-0.3 1.1z"/>
							</g>
							<path id="&lt;Mesh&gt;" class="s54" d="m1657.8 2460.1q3.8-5.6 7.6-11.2c15.7 6.6 25.6 20.3 26.5 36.5 0.6 11-3 23-9.8 34.1-16.6-0.7-26.8 4.5-37.8-4.4 7.3-9.1 10.3-17.4 10.5-24.5 0.5-10.6-5.7-29-9.9-43.6-0.3 0.5-0.4 0.5-0.4 0.2q7.3 6 13.3 12.9zm-13.3-12.9c0 0.3 0.1 0.3 0.4-0.2 4.2 14.6 10.4 33 9.9 43.6-0.2 7.1-3.2 15.4-10.5 24.5-31.2-24.9-41-79.3-79.3-98.4 11 1 21.6 3 31.7 6 18.2 5.3 34.5 13.6 47.8 24.5zm37.6 72.3c-3.3 5.4-7.4 10.5-12.1 15.2-7.6 4.2-14.7 6.1-18.5 6.1-18.3 0.2-37.2-1.4-47-12.8 15-5.5 30-1.1 39.8-12.9 11 8.9 21.2 3.7 37.8 4.4zm-37.8-4.4c-9.8 11.8-24.8 7.4-39.8 12.9-2.7-3.2-5-6.5-7-10.1-9.2-16.3-12-35.8-16.8-54.3-4.8-18.5-12.2-36.7-28.6-47.6q6.5 0.1 12.9 0.7c38.3 19.1 48.1 73.5 79.3 98.4z"/>
							<path id="&lt;Mesh&gt;" class="s55" d="m1877.3 2499.3q-13.7-17.9-27.4-35.8c-14 21.1-15.2 50.4-2.3 72.2 2.8 4.8 18.2 6.6 35.4 6.9 7.8-3 16-6.6 22.1-12.3-16.5-0.7-29.4-51.3-22.8-41-1.1 3.5-2.7 6.8-5 10zm5.2-65.8c-0.7 18.6 5.3 39-0.2 55.8-6.6-10.3 6.3 40.3 22.8 41 22.2-20.5-11-44.8-14-67.9-4-30.2 9.8-60.9 23.8-86.9-12.3 8.5-22 20.9-27.5 34.8-2.9 7.4-4.6 15.3-4.9 23.2zm0.5 109.1c24.9 0.5 53.4-1.8 53.4-1.8 8.7-2.7 18.2-5.6 24.3-12.8-2.9 0.1-30.9 2.5-55.6 2.3-6.1 5.7-14.3 9.3-22.1 12.3zm8.1-80.2c3 23.1 36.2 47.4 14 67.9 24.7 0.2 52.7-2.2 55.6-2.3 4-4.8 6.3-11.2 4.7-17.1-2.8-10.6-15.1-14.7-24.3-20.5-18.8-11.8-27.6-35.3-27.5-57.6 0.1-22.2 7.6-43.6 15-64.5-4.8 1.9-9.4 4.3-13.7 7.2-14 26-27.8 56.7-23.8 86.9z"/>
							<g id="&lt;Group&gt;" style="mix-blend-mode: soft-light">
								<path id="&lt;Path&gt;" class="s53" d="m1546.6 2460.3c13.7 18.6 7 47.9 22.7 65.1 6.1 6.8 15 10.6 24.1 12.2 11.8 2.1 23.9 0.8 35.8 0.5 3.3-9.9 0.1-21.1-6-29.6-6.1-8.5-14.8-14.8-23.6-20.5-17-11-35-20.6-53.7-28.6q0.3 0.5 0.7 0.9z"/>
							</g>
						</g>
					</g>
					<g id="&lt;Group&gt;">
						<g id="&lt;Group&gt;">
							<path id="&lt;Path&gt;" class="s23" d="m2405 2532.7h-62.1c-50 0-90.5-40.5-90.5-90.5v-64h243.1v64c0 50-40.5 90.5-90.5 90.5z"/>
							<path id="&lt;Path&gt;" class="s24" d="m2270.1 2378.2h-17.7v64c0 50 40.5 90.5 90.5 90.5h44.6c-28.7-7.4-56-22.2-75.9-41.1-28.5-31-37.9-72.6-41.5-113.4z"/>
							<path id="&lt;Path&gt;" class="s25" d="m2436.8 2378.2h-23.2l1.8 116.1c18.8-29.6 21.4-46.6 21.4-116.1z"/>
						</g>
						<path id="&lt;Path&gt;" class="s23" d="m2453.3 2521.2h-159.1v11.6h159.1z"/>
					</g>
					<g id="&lt;Group&gt;" style="mix-blend-mode: soft-light">
						<path id="&lt;Path&gt;" class="s56" d="m2088.9 1696.7c-28.9-35-79.7-50.6-123.9-38.9-48.4 12.9-86.6 55.8-97 104.8-3.5 16.5-4.2 33.7-9.4 49.7-5.3 16.1-16.5 31.6-32.9 35.7-14.9 3.7-34.6-0.8-42.5 12.4-12.2 20.4 26.6 39.4 24.4 63.1-2.1 23.8-39.3 25.1-52 45.3-6.8 11-4.7 25.5 2.1 36.7q1.8-5.3 4.6-10.2c10.9-19.1 32.2-31.8 54.2-32.3 13.1-0.3 26.4 3.4 39.3 0.9 12.9-2.5 25.4-15.3 20.7-27.6-3.4-8.9-14-12.9-19.3-20.8-8.5-12.5-0.2-30.8 13-38.2 13.2-7.4 29.3-6.8 44.3-5.8 56.9 3.9 121 9.7 164.1-27.6 37.8-32.9 44.8-94.5 17.9-136.8q-3.4-5.4-7.6-10.4z"/>
					</g>
				</g>
				<g id="desk">
					<path id="&lt;Path&gt;" class="s57" d="m2748.4 2753.7h-2496.7v313.8h2496.7z"/>
					<path id="&lt;Path&gt;" class="s58" d="m2761.4 2645.7h-2496.7v114.4h2496.7z"/>
					<path id="&lt;Path&gt;" class="s57" d="m211.4 2682.3h2603.3c20.6 0 37.3-16.7 37.3-37.4v-75.5c0-20.6-16.7-37.3-37.3-37.3h-2603.3c-20.6 0-37.3 16.7-37.3 37.3v75.5c0 20.7 16.7 37.4 37.3 37.4z"/>
				</g>
			</g>
		</g>
	</g>
</svg>