<?xml version="1.0" encoding="UTF-8"?>
<svg width="700pt" height="700pt" version="1.1" viewBox="0 0 700 700" xmlns="http://www.w3.org/2000/svg" fill="#252525">
 <g>
  <path d="m134.35 375.39c0 41.148 32.836 74.574 73.652 75.961 1.3828 40.816 34.805 73.645 75.945 73.645h205.49c42.023 0 76.211-34.18 76.211-76.203v-264.19c0-41.148-32.836-74.574-73.652-75.961-1.3828-40.816-34.805-73.645-75.945-73.645h-205.49c-42.023 0-76.211 34.18-76.211 76.203zm35-264.19c0-22.711 18.492-41.203 41.211-41.203h205.49c22.723 0 41.203 18.492 41.203 41.203v264.19c0 22.73-18.484 41.223-41.203 41.223h-205.49c-22.723 0-41.211-18.492-41.211-41.223zm361.3 337.59c0 22.711-18.492 41.203-41.211 41.203h-205.49c-21.754 0-39.438-17.004-40.918-38.383h173.02c42.016 0 76.203-34.195 76.203-76.223l-0.003906-231.73c21.387 1.4805 38.391 19.172 38.391 40.934z"/>
  <path d="m225.25 260.81h176.13c9.6641 0 17.5-7.8281 17.5-17.5s-7.8359-17.5-17.5-17.5h-176.13c-9.6641 0-17.5 7.8281-17.5 17.5s7.832 17.5 17.5 17.5z"/>
  <path d="m225.25 187.43h88.062c9.6641 0 17.5-7.8281 17.5-17.5s-7.8359-17.5-17.5-17.5h-88.062c-9.6641 0-17.5 7.8281-17.5 17.5s7.832 17.5 17.5 17.5z"/>
  <path d="m225.25 334.19h176.13c9.6641 0 17.5-7.8281 17.5-17.5s-7.8359-17.5-17.5-17.5h-176.13c-9.6641 0-17.5 7.8281-17.5 17.5s7.832 17.5 17.5 17.5z"/>
 </g>
</svg>
